<svg width="16" height="16" viewBox="0 0 16 16" fill="none" xmlns="http://www.w3.org/2000/svg">
<g id="mail-box" clip-path="url(#clip0_69_921)">
<path id="Vector" d="M8.99113 2.9H10.4H10.9V2.4V0.8C10.9 0.634068 11.0342 0.5 11.2 0.5H12.8C12.9658 0.5 13.1 0.634068 13.1 0.8C13.1 0.965932 12.9658 1.1 12.8 1.1H12H11.5V1.6V2.4368V2.89578L11.9573 2.93497C12.5292 2.98398 12.9566 3.08078 13.2437 3.16685C13.3874 3.20992 13.4961 3.25033 13.5704 3.28081C13.6075 3.29606 13.6358 3.30876 13.6555 3.31798C13.6757 3.32747 13.6855 3.33266 13.6853 3.3326L13.6924 3.33642L13.6946 3.33752C13.695 3.3377 13.6953 3.33789 13.6956 3.33806C13.6977 3.33918 13.7007 3.34072 13.7043 3.34254C14.8124 3.96019 15.5 5.13112 15.5 6.4V11.2C15.5 11.3658 15.3659 11.5 15.2 11.5H10.4H9.9V12V15.2C9.9 15.3659 9.76578 15.5 9.6 15.5H8C7.83422 15.5 7.7 15.3659 7.7 15.2V12V11.5H7.2H0.8C0.634217 11.5 0.5 11.3659 0.5 11.2V6.4C0.5 4.47054 2.07054 2.9 4 2.9C5.92946 2.9 7.5 4.47054 7.5 6.4V10.4V10.9H8H9.6H10.1V10.4V6.4C10.1 5.09746 9.68857 3.89061 8.99113 2.9ZM3.2 10.1H4.8C5.51742 10.1 6.1 9.51887 6.1 8.8C6.1 8.08113 5.51742 7.5 4.8 7.5H3.2C2.48258 7.5 1.9 8.08113 1.9 8.8C1.9 9.51887 2.48258 10.1 3.2 10.1Z" fill="#6B7280" stroke="#6B7280"/>
</g>
<defs>
<clipPath id="clip0_69_921">
<rect width="16" height="16" fill="white"/>
</clipPath>
</defs>
</svg>
