<svg width="16" height="16" viewBox="0 0 16 16" fill="none" xmlns="http://www.w3.org/2000/svg">
<path d="M7.6937 11.136V10.7059L7.26841 10.6416C5.98861 10.4482 4.83014 9.78354 4.02336 8.78125C3.21667 7.77908 2.82058 6.51278 2.91311 5.23467C3.00565 3.95654 3.58013 2.75913 4.52324 1.88135C5.46553 1.00433 6.70667 0.510851 7.9999 0.500016C9.29314 0.510851 10.5343 1.00433 11.4766 1.88135C12.4197 2.75913 12.9942 3.95654 13.0867 5.23467C13.1792 6.51278 12.7831 7.77908 11.9764 8.78125C11.1697 9.78354 10.0112 10.4482 8.7314 10.6416L8.30611 10.7059V11.136V15.2C8.30611 15.2783 8.2748 15.3542 8.21779 15.4108C8.16066 15.4675 8.08236 15.5 7.9999 15.5C7.91745 15.5 7.83914 15.4675 7.78201 15.4108C7.72501 15.3542 7.6937 15.2783 7.6937 15.2V11.136ZM7.49697 5.10639C7.6297 4.97468 7.81054 4.9 7.9999 4.9C8.34509 4.9 8.67691 4.76397 8.92216 4.5206C9.16755 4.27711 9.30611 3.94603 9.30611 3.6C9.30611 3.25397 9.16755 2.92289 8.92216 2.6794C8.67691 2.43603 8.34509 2.3 7.9999 2.3C7.12017 2.3 6.27569 2.64675 5.65246 3.26518C5.02909 3.88375 4.67818 4.72353 4.67818 5.6C4.67818 5.94603 4.81674 6.27711 5.06212 6.5206C5.30738 6.76397 5.6392 6.9 5.98438 6.9C6.32957 6.9 6.66139 6.76397 6.90664 6.5206C7.15203 6.27711 7.29059 5.94603 7.29059 5.6C7.29059 5.4156 7.36438 5.23797 7.49697 5.10639Z" fill="#6B7280" stroke="#6B7280"/>
</svg>
