<svg width="16" height="16" viewBox="0 0 16 16" fill="none" xmlns="http://www.w3.org/2000/svg">
<g id="phone" clip-path="url(#clip0_69_1016)">
<path id="Vector" d="M7.28764 10.8224L7.2887 10.8235C7.75434 11.2876 8.38499 11.5482 9.04245 11.5482C9.6999 11.5482 10.3306 11.2876 10.7962 10.8235L10.7967 10.8229L11.4966 10.1232C11.4967 10.1231 11.4968 10.123 11.4968 10.1229C11.775 9.84583 12.1517 9.69021 12.5444 9.69021C12.9372 9.69021 13.314 9.84592 13.5922 10.1232L14.9924 11.5232L15.008 11.5388L15.025 11.553C15.1737 11.6775 15.2933 11.8332 15.3754 12.0089C15.4575 12.1846 15.5 12.3762 15.5 12.5702C15.5 12.7641 15.4575 12.9557 15.3754 13.1315C15.2933 13.3072 15.1737 13.4628 15.025 13.5874L15.008 13.6016L14.9924 13.6172C13.2728 15.337 11.472 15.7594 9.67342 15.3613C7.83382 14.9541 5.94032 13.6744 4.13006 11.8645C2.31989 10.0546 1.04238 8.16253 0.637313 6.32437C0.241265 4.52717 0.665645 2.72718 2.3861 1.00699L2.4016 0.991489L2.41569 0.97469C2.54033 0.826056 2.69604 0.706527 2.87185 0.624515C3.04767 0.542502 3.23933 0.5 3.43335 0.5C3.62736 0.5 3.81902 0.542502 3.99484 0.624515C4.17065 0.706527 4.32636 0.826056 4.451 0.97469L4.46509 0.991489L4.48059 1.00699L5.88099 2.40718C5.881 2.40719 5.88101 2.40719 5.88102 2.4072C6.15845 2.68519 6.31425 3.06185 6.31425 3.45453C6.31425 3.84722 6.15844 4.2239 5.88099 4.50189L5.18098 5.20179L5.18061 5.20217C4.71606 5.66762 4.45516 6.29834 4.45516 6.95594C4.45516 7.61347 4.71602 8.24413 5.18048 8.70957C5.18052 8.70962 5.18056 8.70966 5.18061 8.7097L7.28764 10.8224Z" fill="#6B7280" stroke="#6B7280"/>
</g>
<defs>
<clipPath id="clip0_69_1016">
<rect width="16" height="16" fill="white"/>
</clipPath>
</defs>
</svg>
