<svg width="16" height="16" viewBox="0 0 16 16" fill="none" xmlns="http://www.w3.org/2000/svg">
<g id="pin">
<path id="Vector" d="M8.00065 0C9.76817 0.00174289 11.4628 0.652641 12.7126 1.80987C13.9624 2.96711 14.6654 4.53615 14.6673 6.17272C14.671 7.4929 14.2129 8.77869 13.3615 9.83767C13.3454 9.86335 13.3276 9.88809 13.3082 9.91175L8.71887 15.6664C8.63621 15.7698 8.5285 15.8539 8.40438 15.9119C8.28027 15.9698 8.1432 16 8.0042 16C7.8652 16 7.72814 15.9698 7.60402 15.9119C7.4799 15.8539 7.37219 15.7698 7.28954 15.6664L2.69666 9.91175C2.67725 9.88781 2.65944 9.8628 2.64333 9.83685C1.79068 8.77858 1.3313 7.49302 1.334 6.17272C1.33588 4.53615 2.03886 2.96711 3.28869 1.80987C4.53852 0.652641 6.23312 0.00174289 8.00065 0ZM8.00065 0L8.00015 0.5C8.00032 0.5 8.00048 0.5 8.00065 0.5M8.00065 0L8.00114 0.5C8.00097 0.5 8.00081 0.5 8.00065 0.5M8.00065 0.5C9.64744 0.501745 11.2192 1.10858 12.3729 2.17676C13.5254 3.24385 14.1656 4.68208 14.1673 6.1733L14.1673 6.17413C14.1707 7.37629 13.7538 8.55175 12.9718 9.52438L12.9536 9.54712L12.938 9.57184C12.9332 9.57952 12.9277 9.58716 12.9216 9.59466L12.9216 9.59463L12.9173 9.59999L8.3282 15.3543C8.32817 15.3544 8.32814 15.3544 8.32811 15.3544C8.2952 15.3956 8.24963 15.4323 8.19287 15.4588C8.13599 15.4854 8.07123 15.5 8.0042 15.5C7.93717 15.5 7.87241 15.4854 7.81553 15.4588C7.75879 15.4323 7.71324 15.3956 7.68033 15.3545M8.00065 0.5C6.35386 0.501745 4.78204 1.10858 3.62839 2.17676C2.47592 3.24385 1.83571 4.68208 1.834 6.1733L1.834 6.17374C1.83154 7.37597 2.24957 8.5512 3.03268 9.52315L3.05191 9.54702L3.06808 9.57306C3.07306 9.58107 3.0787 9.58903 3.08503 9.59684L3.08746 9.59984L3.08745 9.59985L7.6802 15.3543M7.6802 15.3543L7.28998 15.666L7.68033 15.3545M7.6802 15.3543L7.68033 15.3545M7.6802 15.3543L7.68033 15.3545M9.27842 6.27313C9.27842 6.87054 8.74328 7.41919 8.00065 7.41919C7.25801 7.41919 6.72287 6.87054 6.72287 6.27313C6.72287 5.67573 7.25801 5.12707 8.00065 5.12707C8.74328 5.12707 9.27842 5.67573 9.27842 6.27313ZM5.76223 9.43563C6.42784 9.84743 7.20672 10.0652 8.00065 10.0652C9.06435 10.0652 10.0915 9.67436 10.8545 8.96789C11.6188 8.26023 12.0562 7.29183 12.0562 6.27313C12.0562 5.51415 11.8129 4.77579 11.3624 4.15154C10.9123 3.52784 10.2768 3.04722 9.54034 2.76477C8.80407 2.48239 7.99583 2.40899 7.21643 2.55254C6.43695 2.6961 5.71609 3.05125 5.14679 3.57837C4.57709 4.10586 4.18421 4.78275 4.02457 5.52585C3.86485 6.26935 3.94725 7.03953 4.25934 7.73715C4.57116 8.43418 5.09631 9.02364 5.76223 9.43563Z" fill="#6B7280" stroke="#6B7280"/>
</g>
</svg>
