<svg width="16" height="16" viewBox="0 0 16 16" fill="none" xmlns="http://www.w3.org/2000/svg">
<g id="user">
<path id="Vector" d="M11.6538 3.78947C11.6538 5.56399 10.0622 7.07895 8 7.07895C5.93784 7.07895 4.34615 5.56399 4.34615 3.78947C4.34615 2.01496 5.93784 0.5 8 0.5C10.0622 0.5 11.6538 2.01496 11.6538 3.78947ZM3.69041 10.0251C4.45925 9.32375 5.51068 8.92226 6.61593 8.92105H9.38407C10.4893 8.92226 11.5407 9.32375 12.3096 10.0251C13.0769 10.7252 13.4987 11.6639 13.5 12.6322V15.1579C13.5 15.233 13.4677 15.3155 13.3927 15.384C13.3161 15.4538 13.2032 15.5 13.0769 15.5H2.92308C2.79681 15.5 2.68391 15.4538 2.60734 15.384C2.53231 15.3155 2.5 15.233 2.5 15.1579V12.6319C2.50136 11.6637 2.92318 10.7251 3.69041 10.0251Z" fill="#6B7280" stroke="#6B7280"/>
</g>
</svg>
