<?xml version="1.0" encoding="UTF-8"?>
<svg id="Layer_1" data-name="Layer 1" xmlns="http://www.w3.org/2000/svg" viewBox="0 0 252.18 387.71">
  <defs>
    <style>
      .cls-1 {
        fill: #265797;
        fill-rule: evenodd;
      }
    </style>
  </defs>
  <path class="cls-1" d="M122.53.71c-16.63,34.55-76,68.06-2.83,121.43,20.2,15.01,54.06,23.99,36.74,59.3-1.54,2.69,1.14,3.43,3.53,1.41,24.69-28.64,64.92-73.8,31.07-110.69-19.22-20.78-58.65-34.48-66.55-54.21-1.52-3.82.16-9.35,2.26-13.71,1.7-4.06-3.34-5.12-4.24-3.53h0ZM88.03,120.25c-8.7,23.34-52.69,50.19,6.04,81.18,13.58,7.99,31.14,17.99,29.22,32.62-.72,1.86.97,2.12,2.28.61,19.35-21.84,33.87-53.1,10.18-74.06-12.38-11.82-41.66-18.2-44.83-38.43.71-2.76-2.46-3.02-2.88-1.92h0ZM49.13,239.71l-9.1,16h164l-9.1-16H49.13ZM80.03,259.71l10.77,28,63.32-.2,9.91-27.8h-84ZM20,383.96l1.14,3.74,34.46-.55c21.46-.05,30.99-36.94,4.34-44.55,19.95-15.16,8.11-43.32-7.33-42.89l-31.2-.28-1.41.72v-.45H0v88h20v-3.74ZM20,371.71l29,.24c10.36.3,11.03-21.09.27-21.24l-29.27.54v20.46ZM20,334.71h25.21c12.2.52,8.41-19.36.27-19.31l-25.48-.52v19.83ZM196,383.96l1.14,3.74,34.46-.55c21.46-.05,30.99-36.94,4.34-44.55,19.95-15.16,8.11-43.32-7.33-42.89l-31.2-.28-1.41.72v-.45h-20v88h20v-3.74ZM196,371.71l29,.24c10.36.3,11.03-21.09.27-21.24l-29.27.54v20.46ZM196,334.71h25.21c12.2.52,8.41-19.36.27-19.31l-25.48-.52v19.83ZM108,383.96l1.14,3.74,34.46-.55c21.46-.05,30.99-36.94,4.34-44.55,19.95-15.16,8.11-43.32-7.33-42.89l-31.2-.28-1.41.72v-.45h-20v88h20v-3.74ZM108,371.71l29,.24c10.36.3,11.03-21.09.27-21.24l-29.27.54v20.46ZM108,334.71h25.21c12.2.52,8.41-19.36.27-19.31l-25.48-.52v19.83Z"/>
</svg>