<?xml version="1.0" encoding="UTF-8"?>
<svg id="Layer_1" data-name="Layer 1" xmlns="http://www.w3.org/2000/svg" viewBox="0 0 931.57 414.79">
  <defs>
    <style>
      .cls-1 {
        fill: #3275f0;
      }

      .cls-2 {
        fill: #279b44;
      }

      .cls-3 {
        fill: #f5ad03;
      }

      .cls-4 {
        fill: #e53227;
      }
    </style>
  </defs>
  <path class="cls-1" d="M197,140.8h-77v-32h110c7.88,55.79-18.88,107.56-73.99,124.51C65.13,261.25-21.98,177.2,4.98,85.28,29.73.9,137.51-28.04,201.98,31.3l-22.62,23.34c-9.46-5.99-17.12-11.94-27.84-15.86C43.53-.77-13.85,158.84,89.01,199.28c45.2,17.77,105.15-5.42,107.98-58.48Z"/>
  <path class="cls-1" d="M690,220.8c-20.62,16.63-42.05,21.69-67.26,11.76-52.85-20.82-64.63-90.18-22.26-128.79,27.12-24.71,59.97-26.35,88.52-2.97.16-2-.79-11,1.51-11h30.5v154.5c0,6.21-6.84,23-10.19,28.81-28.51,49.36-111.08,42.11-128.78-12.27,9.83-2.63,18.46-8.9,28.29-11.11,11.04,19.56,23.46,29,46.92,25.81,17.21-2.34,32.76-19.83,32.76-37.24v-17.5ZM645.77,115.08c-52.73,6.15-46.62,99.29,10.61,92.61,51.67-6.03,46.12-99.23-10.61-92.61Z"/>
  <path class="cls-3" d="M478.8,84.1c102.59-8.54,112.8,149.51,9.69,154.68-98.75,4.95-110.35-146.3-9.69-154.68ZM481.79,115.09c-56.3,4.56-51.71,97.64,7.69,92.69,54.81-4.57,49.31-97.3-7.69-92.69Z"/>
  <path class="cls-4" d="M311.8,84.1c103.42-8.56,112.81,150.09,9.69,154.69-98.91,4.41-109.4-146.43-9.69-154.69ZM314.77,115.07c-57.13,5.35-50.14,98.53,8.71,92.71,54.83-5.42,48.09-98.03-8.71-92.71Z"/>
  <path class="cls-4" d="M830.99,183.81c11.03,29.25,49.02,30.68,69.02,9.51,2.33-2.47,3.48-7.2,6.25-6.33,1.51.47,22.65,14.57,23.32,15.81.93,1.73-5.59,9.44-7.07,11.02-26.05,27.76-71.59,31.26-101.43,7.4-40.52-32.4-38.36-95.09,4.61-124.23s93.73-2.58,105.89,44.82l-100.58,42ZM825,158.79l67.97-28.55c-8.54-17.16-29.39-18.67-45.66-11.62s-22.72,23.19-22.32,40.17Z"/>
  <rect class="cls-2" x="744" y="7.8" width="34" height="225"/>
  <path class="cls-3" d="M203.98,296.8l19.7,36.06,41.31,7.95c.45,1.73-.72,2-1.49,3-3.33,4.32-26.9,26.67-27.27,28.61l5.76,42.38-38.66-17.77-39.33,17.77,4.8-42.29-26.31-28.7-1.49-3,41.34-7.92c6.81-9.98,11.76-25.07,18.81-34.43.86-1.14,1.06-2.04,2.83-1.65Z"/>
  <path class="cls-3" d="M356.24,332.54l41.75,8.26-1.49,3-26.31,28.7,4.8,42.29-39.33-17.77-38.66,17.77,5.76-42.38c-.37-1.94-23.94-24.29-27.27-28.61-.77-1-1.94-1.27-1.49-3l41.31-7.95,19.7-36.06c1.77-.39,1.98.52,2.83,1.65,6.89,9.15,12.06,24.14,18.4,34.09Z"/>
  <path class="cls-3" d="M488.24,332.54l41.75,8.26-1.49,3-26.31,28.7,4.8,42.29-39.33-17.77-38.66,17.77,5.76-42.38c-.37-1.94-23.94-24.29-27.27-28.61-.77-1-1.94-1.27-1.49-3l41.31-7.95,19.7-36.06c1.77-.39,1.98.52,2.83,1.65,6.89,9.15,12.06,24.14,18.4,34.09Z"/>
  <path class="cls-3" d="M599.98,296.8l19.7,36.06,41.31,7.95c.45,1.73-.72,2-1.49,3-3.33,4.32-26.9,26.67-27.27,28.61l5.76,42.38-38.66-17.77-39.33,17.77,4.8-42.29-26.31-28.7-1.49-3,41.34-7.92c6.81-9.98,11.76-25.07,18.81-34.43.86-1.14,1.06-2.04,2.83-1.65Z"/>
  <path class="cls-3" d="M794.99,340.8c.67.71-5.57,7.98-6.48,9.01-6.85,7.72-14.85,14.62-21.35,22.71l4.84,41.27c-1.51,1.6-33.84-15.47-38.49-16.92-4.66,1.45-36.99,18.52-38.49,16.92l4.84-41.27c-6.5-8.09-14.5-14.99-21.35-22.71-.91-1.03-7.15-8.3-6.48-9.01l40.4-8.1,21.09-36.89,21.09,36.89,40.4,8.1Z"/>
</svg>