<svg width="49" height="48" viewBox="0 0 49 48" fill="none" xmlns="http://www.w3.org/2000/svg">
<path d="M37.2793 19.4141C37.1681 20.1797 36.6632 21.2199 36.084 22.1243C35.3532 23.2654 34.1935 24.0647 32.8663 24.3423L27.0197 25.5648C26.0801 25.7613 25.228 26.2531 24.5882 26.9682L20.7547 31.2532C20.0343 32.0586 19.5307 31.8665 19.5307 30.7864C19.522 30.8265 17.6281 35.7105 22.6471 38.6054C24.5755 39.7177 27.3515 39.3181 29.2799 38.2058L39.4977 32.3121C43.3189 30.108 46.0169 26.3793 46.9137 22.0631C46.9492 21.8923 46.9766 21.721 47.0062 21.5497L37.2793 19.4141Z" fill="url(#paint0_linear_36_1374)"/>
<path d="M34.6294 13.5269C36.5578 14.6392 37.3458 16.2952 37.3457 18.5198C37.3457 18.8218 37.322 19.1202 37.2793 19.414L41.3964 21.1825L47.0062 21.5497C47.7245 17.3924 46.3168 13.1133 43.7932 9.71192C41.894 7.15225 39.4502 4.93095 36.5123 3.23631C34.1257 1.85973 31.6457 0.952752 29.1539 0.455078L26.3543 4.08059L25.4699 8.24363L34.6294 13.5269Z" fill="url(#paint1_linear_36_1374)"/>
<path d="M1.6754 16.5777C1.67435 16.581 1.67725 16.5819 1.67834 16.5787C1.89437 15.9307 2.16527 15.2078 2.50346 14.4355C4.27001 10.4015 7.67429 7.71093 11.8624 6.33912C16.0504 4.96734 20.6233 5.44819 24.4402 7.64982L25.4698 8.24366L29.1538 0.455118C17.4364 -1.88515 5.46092 4.9988 1.69029 16.5326C1.68849 16.5381 1.68194 16.5573 1.6754 16.5777Z" fill="url(#paint2_linear_36_1374)"/>
<path d="M28.8797 38.2056C26.9513 39.3179 24.5754 39.3179 22.647 38.2056C22.3852 38.0546 22.1384 37.8848 21.905 37.701L18.5135 40.0328L15.5903 44.7564C18.8349 47.4565 23.0481 48.3246 27.2583 47.8418C30.4268 47.4785 33.5742 46.4747 36.5121 44.7801C38.8987 43.4036 40.9249 41.7113 42.6022 39.8042L40.8593 35.5692L38.0392 32.9224L28.8797 38.2056Z" fill="url(#paint3_linear_36_1374)"/>
<path d="M21.905 37.701C20.4193 36.5306 19.5306 34.7356 19.5306 32.8129V32.6212V16.6084C19.5306 15.7028 19.7974 15.5489 20.5824 16.0017C19.3734 15.3043 16.5803 12.9103 13.1316 14.8995C11.2032 16.0118 9.61523 18.4671 9.61523 20.6917V32.4791C9.61523 36.8873 11.8985 41.4857 15.1916 44.4197C15.3219 44.5357 15.4567 44.6451 15.5903 44.7563L21.905 37.701Z" fill="url(#paint4_linear_36_1374)"/>
<path d="M42.3656 7.96845C42.3633 7.9659 42.361 7.96796 42.3633 7.97052C42.817 8.48143 43.3082 9.07725 43.8085 9.75599C46.4222 13.3015 47.3987 17.792 46.4939 22.1014C45.5889 26.4109 42.8857 30.1269 39.0687 32.3285L38.0392 32.9223L42.6022 39.8042C50.4895 30.8364 50.51 17.0332 42.3973 8.00392C42.3934 7.9996 42.38 7.9843 42.3656 7.96845Z" fill="url(#paint5_linear_36_1374)"/>
<path d="M10.0153 20.692C10.0153 18.4674 11.2033 16.4117 13.1317 15.2994C13.3935 15.1484 13.664 15.0198 13.94 14.9098L13.6146 10.8095L11.3279 6.11841C7.36506 7.57556 4.15955 10.587 2.47292 14.4711C1.20365 17.3941 0.500015 20.6191 0.5 24.0084C0.5 26.7615 0.953823 29.3608 1.7683 31.7655L6.31087 32.375L10.0153 31.2585V20.692Z" fill="url(#paint6_linear_36_1374)"/>
<path d="M13.9401 14.9098C15.6974 14.2094 17.6978 14.3381 19.3644 15.2994L19.5307 15.3953L32.8737 23.0916C33.8097 23.6315 33.7247 24.1628 32.6668 24.384L33.4365 24.223C34.4493 24.0112 35.3747 23.4936 36.0823 22.7393C37.299 21.4425 37.7457 19.8778 37.7457 18.5199C37.7457 16.2952 36.5577 14.2396 34.6293 13.1273L24.4115 7.23362C20.5902 5.0295 16.009 4.5595 11.8191 5.94173C11.6534 5.9964 11.4912 6.05839 11.3279 6.11841L13.9401 14.9098Z" fill="url(#paint7_linear_36_1374)"/>
<path d="M29.4833 47.4787C29.4867 47.478 29.486 47.475 29.4827 47.4757C28.8129 47.6128 28.0509 47.7398 27.2123 47.8334C22.8321 48.322 18.4513 46.9217 15.1681 43.984C11.8849 41.0464 10.0153 36.8495 10.0153 32.4463L10.0153 31.2585L1.76831 31.7656C5.59833 43.0736 17.5534 49.9929 29.4367 47.4884C29.4424 47.4872 29.4624 47.4832 29.4833 47.4787Z" fill="url(#paint8_linear_36_1374)"/>
<defs>
<linearGradient id="paint0_linear_36_1374" x1="30.5901" y1="35.6549" x2="35.3114" y2="19.2102" gradientUnits="userSpaceOnUse">
<stop stop-color="#1724C9"/>
<stop offset="1" stop-color="#1C64F2"/>
</linearGradient>
<linearGradient id="paint1_linear_36_1374" x1="41.4641" y1="15.6004" x2="29.0447" y2="3.22468" gradientUnits="userSpaceOnUse">
<stop stop-color="#1C64F2"/>
<stop offset="1" stop-color="#0092FF"/>
</linearGradient>
<linearGradient id="paint2_linear_36_1374" x1="24.7467" y1="7.53172" x2="6.01147" y2="8.7156" gradientUnits="userSpaceOnUse">
<stop stop-color="#0092FF"/>
<stop offset="1" stop-color="#45B2FF"/>
</linearGradient>
<linearGradient id="paint3_linear_36_1374" x1="23.4796" y1="42.9939" x2="40.3048" y2="38.4538" gradientUnits="userSpaceOnUse">
<stop stop-color="#1C64F2"/>
<stop offset="1" stop-color="#0092FF"/>
</linearGradient>
<linearGradient id="paint4_linear_36_1374" x1="11.4031" y1="23.5238" x2="23.3486" y2="35.9019" gradientUnits="userSpaceOnUse">
<stop stop-color="#1724C9"/>
<stop offset="1" stop-color="#1C64F2"/>
</linearGradient>
<linearGradient id="paint5_linear_36_1374" x1="38.6756" y1="32.4534" x2="47.0103" y2="15.6517" gradientUnits="userSpaceOnUse">
<stop stop-color="#0092FF"/>
<stop offset="1" stop-color="#45B2FF"/>
</linearGradient>
<linearGradient id="paint6_linear_36_1374" x1="8.5458" y1="13.6965" x2="4.0858" y2="30.4599" gradientUnits="userSpaceOnUse">
<stop stop-color="#1C64F2"/>
<stop offset="1" stop-color="#0092FF"/>
</linearGradient>
<linearGradient id="paint7_linear_36_1374" x1="31.3146" y1="12.8992" x2="15.0165" y2="16.9571" gradientUnits="userSpaceOnUse">
<stop stop-color="#1724C9"/>
<stop offset="1" stop-color="#1C64F2"/>
</linearGradient>
<linearGradient id="paint8_linear_36_1374" x1="10.1101" y1="32.0351" x2="20.4988" y2="47.6621" gradientUnits="userSpaceOnUse">
<stop stop-color="#0092FF"/>
<stop offset="1" stop-color="#45B2FF"/>
</linearGradient>
</defs>
</svg>
