<?xml version="1.0" encoding="UTF-8"?>
<svg id="Layer_1" data-name="Layer 1" xmlns="http://www.w3.org/2000/svg" viewBox="0 0 506.59 504.04">
  <defs>
    <style>
      .cls-1 {
        fill: #5e6b70;
      }

      .cls-2 {
        fill: #f4ebe1;
      }

      .cls-3 {
        fill: #022138;
      }

      .cls-4 {
        fill: #d6cfc4;
      }

      .cls-5 {
        fill: #afb4b6;
      }

      .cls-6 {
        fill: #f8f8f7;
      }

      .cls-7 {
        fill: #d6cfc1;
      }

      .cls-8 {
        fill: #60717c;
      }

      .cls-9 {
        fill: #e0dcd9;
      }

      .cls-10 {
        fill: #876d52;
      }

      .cls-11 {
        fill: #9c8062;
      }

      .cls-12 {
        fill: #faf6e9;
      }

      .cls-13 {
        fill: #4d626b;
      }

      .cls-14 {
        fill: #fdfcf4;
      }

      .cls-15 {
        fill: #012b44;
      }

      .cls-16 {
        fill: #072239;
      }

      .cls-17 {
        fill: #a4acad;
      }

      .cls-18 {
        fill: #f9f9f8;
      }

      .cls-19 {
        fill: #725943;
      }

      .cls-20 {
        fill: #a0876e;
      }

      .cls-21 {
        fill: #a19e9a;
      }

      .cls-22 {
        fill: #c0beb4;
      }

      .cls-23 {
        fill: #3f5664;
      }

      .cls-24 {
        fill: #cec3b7;
      }

      .cls-25 {
        fill: #d1c9bf;
      }

      .cls-26 {
        fill: #eeedea;
      }

      .cls-27 {
        fill: #f3f4f4;
      }

      .cls-28 {
        fill: #d5d3d1;
      }

      .cls-29 {
        fill: #cbc3b9;
      }

      .cls-30 {
        fill: #ded6c9;
      }

      .cls-31 {
        fill: #999d9c;
      }

      .cls-32 {
        fill: #173d55;
      }

      .cls-33 {
        fill: #d6d3cd;
      }

      .cls-34 {
        fill: #7c614a;
      }

      .cls-35 {
        fill: #61747b;
      }

      .cls-36 {
        fill: #1d4862;
      }

      .cls-37 {
        fill: #758083;
      }

      .cls-38 {
        fill: #b3b4b1;
      }

      .cls-39 {
        fill: #fdf6ea;
      }

      .cls-40 {
        fill: #909c9c;
      }

      .cls-41 {
        fill: #c3c3bf;
      }

      .cls-42 {
        fill: #826853;
      }

      .cls-43 {
        fill: #01243d;
      }

      .cls-44 {
        fill: #02324d;
      }

      .cls-45 {
        fill: #b1b0a8;
      }

      .cls-46 {
        fill: #f7f7f6;
      }

      .cls-47 {
        fill: #b4997d;
      }

      .cls-48 {
        fill: #144159;
      }

      .cls-49 {
        fill: #a58c74;
      }

      .cls-50 {
        fill: #7b644d;
      }

      .cls-51 {
        fill: #012640;
      }

      .cls-52 {
        fill: #949692;
      }

      .cls-53 {
        fill: #ad9377;
      }

      .cls-54 {
        fill: #6f8087;
      }

      .cls-55 {
        fill: #bcbcbd;
      }

      .cls-56 {
        fill: #012841;
      }

      .cls-57 {
        fill: #f4f4f2;
      }

      .cls-58 {
        fill: #e3ded2;
      }

      .cls-59 {
        fill: #0c3c54;
      }

      .cls-60 {
        fill: #00213a;
      }

      .cls-61 {
        fill: #dfddd9;
      }

      .cls-62 {
        fill: #987a5b;
      }

      .cls-63 {
        fill: #9d846b;
      }

      .cls-64 {
        fill: #c9c9c6;
      }

      .cls-65 {
        fill: #01324b;
      }

      .cls-66 {
        fill: #002744;
      }

      .cls-67 {
        fill: #f8f0e5;
      }

      .cls-68 {
        fill: #faf4e8;
      }

      .cls-69 {
        fill: #dadad8;
      }

      .cls-70 {
        fill: #dfdfdb;
      }

      .cls-71 {
        fill: #f5ede1;
      }

      .cls-72 {
        fill: #818d93;
      }

      .cls-73 {
        fill: #896e52;
      }

      .cls-74 {
        fill: #03203a;
      }

      .cls-75 {
        fill: #717a7f;
      }

      .cls-76 {
        fill: #c2b0a0;
      }

      .cls-77 {
        fill: #16455c;
      }

      .cls-78 {
        fill: #eee6da;
      }

      .cls-79 {
        fill: #355365;
      }

      .cls-80 {
        fill: #093851;
      }

      .cls-81 {
        fill: #828f91;
      }

      .cls-82 {
        fill: #d3d1cf;
      }

      .cls-83 {
        fill: #737c7c;
      }

      .cls-84 {
        fill: #012e47;
      }

      .cls-85 {
        fill: #d9d2c7;
      }

      .cls-86 {
        fill: #002c49;
      }

      .cls-87 {
        fill: #012842;
      }

      .cls-88 {
        fill: #babdb9;
      }

      .cls-89 {
        fill: #aa8e6c;
      }

      .cls-90 {
        fill: #9c8167;
      }

      .cls-91 {
        fill: #e0d9cd;
      }

      .cls-92 {
        fill: #012b45;
      }

      .cls-93 {
        fill: #b0b4b1;
      }

      .cls-94 {
        fill: #8c735d;
      }

      .cls-95 {
        fill: #839092;
      }

      .cls-96 {
        fill: #b2b7b7;
      }

      .cls-97 {
        fill: #977d65;
      }

      .cls-98 {
        fill: #e7dfd3;
      }

      .cls-99 {
        fill: #11334b;
      }

      .cls-100 {
        fill: #ede5da;
      }

      .cls-101 {
        fill: #f7efe3;
      }

      .cls-102 {
        fill: #5a4938;
      }

      .cls-103 {
        fill: #052942;
      }

      .cls-104 {
        fill: #022b46;
      }

      .cls-105 {
        fill: #224c66;
      }

      .cls-106 {
        fill: #826e5b;
      }

      .cls-107 {
        fill: #4c5e6a;
      }

      .cls-108 {
        fill: #f4f5f4;
      }

      .cls-109 {
        fill: #c4c4c1;
      }

      .cls-110 {
        fill: #edeeed;
      }

      .cls-111 {
        fill: #eaebec;
      }

      .cls-112 {
        fill: #d4cec4;
      }

      .cls-113 {
        fill: #dfd6c9;
      }

      .cls-114 {
        fill: #ac9176;
      }

      .cls-115 {
        fill: #89715c;
      }

      .cls-116 {
        fill: #5d717a;
      }

      .cls-117 {
        fill: #012d47;
      }
    </style>
  </defs>
  <path class="cls-60" d="M1.8,221.87c1.11,1.24,1.86,2.67,2.24,4.28-.94,28.85,2.08,56.71,9.09,83.59,3.3,3.3,6.14,6.92,8.52,10.86-.63-5.05.11-9.51,2.23-13.36-9.81-1.99-6.23-11.47-2-17.62-2.57-4.33-4.31-8.88-5.24-13.64l3.05-38.82,2.11-1.3c.21.98.38,1.95.42,2.94,1.22,32.55,5.3,65.73,18.14,96.32-.1,3,.58,5.89,1.45,8.74,4.02,3.97,7.09,8.91,9.23,14.84,12.91,26.53,32.71,48.09,52.77,69.16l4.7,2.01c71.69,67.82,194.19,65.73,273.44,12.1l4.86-1.1c16.02-12.1,30.2-26.22,42.52-42.34l4.48-2.66,15.21-21.45.28-3.03c6.42-9.79,12.73-19.92,16.11-31.15l2.4-1.37c1.32-7.11,2.6-13.55,5.51-20.41l2.49-1.59,2.14,1.72c-1.33,9.89-2.31,19.76-2.94,29.61l8.38-19.02c1.44-1.99,3.68-2.94,5.98-3.45,1.44-3.61,6.7-13.59,7.44-5.86C413.87,617.68-31.76,532.16,1.8,221.87Z"/>
  <path class="cls-105" d="M345.8,17.87l2.48,2.09.75,11.11c1.01,4.48,5.05,6.96,12.12,7.46,4.56,1.55,4.88,10.16-.35,9.35l-6.26-.91c-46.32-22.58-99.04-28.55-149.46-18.39l-6.28-.71c-12.72,2.26-9.92-3.71-.91-7.71,3.16-3.56,4.8-8.37,4.9-14.42,12.96-2.39,26.06-3.7,39.29-3.92-1.89.42-3.64.09-5.28-.96,37-3.45,74.66,3.55,109,17Z"/>
  <path class="cls-87" d="M30.8,130.87c4.16.25,1.83,5.62.61,8.3l-5.14,9.16c1.05,6.99,1.15,11.99-4.29,17-1.1,10.68,14.8-.44,16.65-5.04l2.17-.42c.7,4.03-.43,7.88-3.36,11.55l-8.64,27.45,1.27,3.34c-2.45,10.1-4.82,20.27-5.19,30.7l-2.08,2.95c-.28.87-.62.86-1,0l-3.04,39.53c-1.1,2.75,5.2,13.2,5.16,13.94-.17,3.53-5.18,6.26-4.21,12.05s5.84,2.06,6.11,5.95c.07,1.04-2.03,2.85-2.07,4.99-.02,1.3.52,23.28-3.95,17.54-.53-.68.59-7.06-.22-9.28-1.07-2.95-7.29-7.49-8.51-10.49-1.79-4.41-5.36-24.15-6.19-29.81-2.75-18.76-1.88-39.57-3.09-58.41,3.41-31.51,14-63.23,29-91Z"/>
  <path class="cls-56" d="M496.8,319.87c-.1-5.86-5.65,7.01-6.03,7.47-.47.57-3.3.29-5.43,2.57-2.57,2.75-6.84,19.69-11.53,22.96-3.73-13.83,3.42-22.72,1.99-36-2.15-3.88-.48-10.33,3-13,1.37-10.69,2.57-21.23,3.61-31.59l1.39-1.41c-.75-23.35-3.07-46.55-6.94-69.59l.94-2.41c-1.8-.13-2.35-3.26,0-3-.94-3.32-.97-4.48,2.6-2.45,1.47,7.31,3.41,14.41,5.82,21.28l9.45-21.03-3.5-8.55c-1.16-3.16-1.59-9.32,2.63-8.25,14.99,48.93,15.73,93.7,2,143Z"/>
  <path class="cls-77" d="M441.8,84.87c1.66,4.59-.31,9.18-5.93,13.78-1.24,1.46-.91,3.19-.2,4.89,5.95,12.51-3.72,4.17-7.87-1.67l-2.32-.62c-18.7-18.83-38.63-36.91-62.09-49.72l-2.59-3.66c6.46-9.13-5.76-8.21-9.63-9.89-6.52-2.83-3.22-13.51-5.37-20.11,37.65,14.75,69.11,37.01,96,67Z"/>
  <path class="cls-44" d="M494.8,176.87c-4.5,6.21,3.12,12.05,2.78,17.26-11.77,26.44-11.4,34.93-18.78.26-1.39-1.65-.85.84-1,1.49l-1.35.19c-6.56-16.78-13.26-33.57-20.08-50.36l1.44-1.83,1.59-.54c-2.75-4.84-4.05-11.09,1.35-14.54l-1.91-10.46c-1.21-5.87-.22-8.69,2.97-8.45,14.27,20.62,25.64,42.96,33,67Z"/>
  <path class="cls-48" d="M145.8,23.87c6.03-.81,2.51,6.94-.52,9.7,2.16,3.32,2.69,6.47,1.59,9.45,4.65-3.22,7.3-3.27,7.94-.15l-2.74,3.5c-12.52,6.58-24.53,14.01-36.04,22.28l-7.22,3.22c-.84,4.41-7.56,9.85-12,9-9.28,10.82-19.74,9.07-17.43-6.38-.56-1.97-.75-3.84-.57-5.62,20.47-19.26,41.38-33.31,67-45Z"/>
  <path class="cls-36" d="M236.8.87c2.66,0,5.34,0,8,.01l-1.68,1.82-38.31,3.16c-1.42,4.56-.57,9.82-3.56,13.96-3.13,4.35-18.34,7.64-2.46,8.04l-3.33,2.85c-12.41,3.12-24.54,7.33-36.29,12.4l-4.38-.24c-2.16-2.22-10.44,4.63-10.99,4-1.25-1.44,1.96-5.31,1.89-6.48-.16-2.49-2.68-5.99-2.58-7.03.12-1.29,6.63-6.08,2.68-9.49C173.37,11.3,206.16.93,236.8.87Z"/>
  <path class="cls-80" d="M96.8,80.87c-3.56,6.6-8.28,12.67-14.17,18.2-4.57,6.66-9.85,12.26-15.83,16.8,1.19,3.51-3.42,8.94-7,9-9.39,5.58-26.88,0-15.66-12.41l.66-3.59c10.45-15.22,20.53-27.33,34-40,5.17,3.55.5,11.37,3,14.5,5.07,6.33,10.43.46,15-2.5Z"/>
  <path class="cls-65" d="M59.8,124.87l-.3,4.17c-5.73,9.09-10.96,18.5-15.4,28.28l-3.3,2.55c-.67,5.8-18.03,17.34-20.58,9.08-1.93-6.24,3.14-6.19,4.36-10.79.93-3.49-.8-8.51-.21-10.41,1.61-5.2,8.21-10.69,6.43-16.87,4.14-7.67,9.07-14.83,14-22,4.08,5.05-4.96,7.68-2.08,12.55,3.2,5.39,12.24,2.71,17.08,3.45Z"/>
  <path class="cls-59" d="M461.8,109.87c-3.43,2.91,1.17,16.81.84,19.35-.2,1.54-3.26,2.24-3.57,4.91-.56,4.82,3.16,10.15,3.73,14.74-1.85.23-3.92-3.5-4.99-4.99l-3.18-1.04c-6.05-10.39-12.83-20.25-20.35-29.56l-.47-3.4c-2.73-1.21-7.17-5.21-6-8l8.99,8c-9.62-15.31,1.96-10.38,5.01-25,7.52,8.39,13.56,15.69,20,25Z"/>
  <path class="cls-29" d="M255.8,414.87c1.39,4.26,3.01,10.12,0,14-.03,1.49-1.03,2.83-3,4,1.48,3.02-.26,3.03-3,3-.41,4.46-5.46,9.89-10,10l.42,2.28-11.3,9.47c-.48,1.1,10.49,1.54,12.17,1.3.51-6.34,1.43-11.4,8.71-12.05,5.56-6.08,19,2.64,16.74,11.1l7.54.02c.26.97.8,1.64,1.72,1.88l2.64-2.23,18.17-3.09,3.19,1.32c2.12.68,4.3,2.05,6.54,4.11,7.73,0,15.45-2.32,23.15-6.92,8.37,1.36,14.45-2.32,18.26-11.03l30.09-11.39,2.49-4.71c2.92-3.16,27.1-9.53,28.01-4.02-6.11,7.21-13.29,13.53-21.54,18.96-75.97,57.74-215.83,59.34-283-13l-5.21-5.23c-9.41-9.76,7.47-11.47,11.2-3.03,8.05,2.32,16.17,4.42,24.35,6.29l15.7,10.81c2.4.94,4.57,1.28,6.97.15,4.62-1.15,13.81,3.85,16,8l2.62-1.09c3.94,1.98,8.08,3.25,12.4,3.79,9.05-9.08,18.38-17.32,27.98-24.7-.99-2.86.14-3.94,3-3,2.62-1.73,7.28,6.9,5,9l.76,2.02-6.76,5.96c2.65,4.55-4.3,4.88-7.97,4.7-3.24.03-3.6,1.7-2.54,4.59l-1.48,1.74c-1.44,8.52,3.13,7.29,13.73-3.69l2.27.69c1.75-5.39,8.36-12.07,14-13,3.32-7.34,12.18-15.03,20-17Z"/>
  <path class="cls-4" d="M69.8,349.87l2.49-.21c5.27,7.9,10.4,15.91,15.39,24.03l-.88,2.18,3.97,1.89c13.77,18.14,29.62,34.8,48.81,47.28l2.22,3.83c3.39-1.32,8.51,1.34,9,5,2.46-.67,3.38.48,3,3,1.93-1.49,2.93-1.49,3,0-8.07,7.79-15.25-6.65-23.28-9.22-7.41-2.37-16.01-2.72-24.69-6.3-1.75-.72-1.51-3.73-4.54-4.49-13.45-3.38-3.72,7.53-.49,11.02-27.26-21.69-48.32-52.21-62-84-4.63-15.25,3.92-7.43,10.1-1.34l8.86,4.11c4.58-2.75,6.53-.92,9.04,3.23Z"/>
  <path class="cls-91" d="M22.8,235.87l2.67,5.8c4.33,1.72,9.91,6.8,13.55,10.18-.41,2.19,1.18,2.86,4.77,2.03l-4.32.09c-.75,2.89-8.64,3.01-9.68-.09l2.07,1.5c.15,7.26,4.64,11.04,11.82,10.51,1.92,6.31,3.29,12.98,4.11,20l2.81,4.17c4.81,19.63,11.29,38.69,19.43,57.19l-.24,2.64c-5.23-5.29-7.66-.62-9.51-1.29-1.11-.4-8.27-3.71-9.38-4.31-5.27-2.85-11.41-15.34-9.11-.39-14.91-34.64-22.27-70.05-20-108h1Z"/>
  <path class="cls-25" d="M390.8,408.87c7.08-5.65,13.87-11.76,20.36-18.31,13.59-1.99,26-11.13,35.52-20.37,2.38-.28,4.3,1.03,2.96,3.07-4.89,7.8-10.17,15.34-15.85,22.61-12.76,17.63-28.82,32.91-47,45,2.37-1.8,19.93-16.19,19.99-17.52.22-5.02-22.92,2.37-24.01,2.99-2.02,1.15-1.95,4.95-3.98,6.02-6.25,3.31-28.95,10.51-30.25,11.49-1.48,1.12-3.94,8.89-9.46,10.79-2.77.96-6.75-.55-9.53.47-9.4,3.45-23.3,14.22-29.76.74-1.39-1.34-.79-1.92,1-1l2.12-2.59,17.69-5.4,3.19.98,4.11-3.67c20.9-7.98,40.49-19.2,57.68-33.53l5.21-1.8Z"/>
  <path class="cls-58" d="M459.8,283.87c2.33-4.6,4.52-5.14,6.59-1.61l7.84-8.16c3.66-3.75,9.39-3.99,8.38,2.41-1.86,9.11-3.13,18.23-3.81,27.36-.74,4.42-1.98,8.66-3,13-1.66,7.06-5.66,15.02-8,22-1.59-.89-1.98-2.44-1.2-4.64-7.59,6.32-16.13,11.78-25.64,16.37l-2.17-.73-.15-4.15c3.96-9.84,8.35-19.45,13.15-28.85-.52-1.4-1-2.91-.75-4.42,1.09-6.45,4.14-18.7,6.18-24.92.48-1.45,1.47-2.62,2.56-3.66Z"/>
  <path class="cls-85" d="M438.8,349.87c4.42-4.39,15.69-8.66,21.35-12.15,3.26-2.01,11.15-14.58,7.65,1.15-3.81,17.12-22.93,43.08-34,57,1.83-2.53,15.32-21.2,14.99-22.51-1.21-4.78-5.65,3.77-6.01,3.99-6.43,3.84-12.93,7.96-19.33,11.68-5.59,3.25-10.99,2.57-14.61,4.39-5.28,2.65-11.37,15.15-18.04,15.46,3.57-7.12,10.98-14.19,18-18l.03-3.09c8.92-12.74,17.97-25.36,27.15-37.86l2.82-.05Z"/>
  <path class="cls-14" d="M360.8,47.87c24.3,12.62,49.1,33.4,67,54,2.11,2.43,3.65,5.68,6,8-.66,2.75-2.66,2.06-4.72.64l-14.49-14.5c-7.69-8.11-8.6-7.08-14.43,2.3-2.13,2.81-3.62,2.44-6.36.56l-2.04-.04c-4.36-3.95-8.68-7.94-12.96-11.96l-5.79-1.79c-39.15-28.73-87.06-41.29-135.33-37.66l-5.88-1.56-2.25,1.31c-23.92,3.78-47.7,9.86-69.62,20.37l-5.13.32c-1.42,3.38-5.4,6.68-9,5l-.4-2.64c6.24-5.61,12.82-10.75,19.76-15.43.31-2.65-27.06,2.11-28.68,4.77-8.14,6.94-16.94,11.71-26.42,14.32l-1.26-2.03c15.61-11.03,28.16-20.89,46-29,13.53-6.15,29.5-11.73,44-15,54.91-12.38,112.02-5.96,162,20Z"/>
  <path class="cls-78" d="M28.8,198.87c2.85-10.72,6.36-21.22,10.53-31.47,6.96-1.1,14.15,6.34,11.16,13.28,2.38,3.53,3.49,7.27,3.31,11.2l.77,4.74c-4.76,18.24-7.57,37.02-7.8,55.89l-1.98,4.38,2.08,2.51c.35,7.91,1.26,15.79,2.48,23.61l-1.55,2.88-3.44-18.06c-10.02.55-14.38-4.07-14.56-13.94h14c-11.28,3.38-15.89-16.83-20.99-8.01,0-3.32-.05-6.67-.01-9.99.18-13.95,2.92-23.8,6-37Z"/>
  <path class="cls-101" d="M88.8,122.87c-.69,5.93-6.67,15.28-12,18-7.1,15.43-13.66,31.08-19.69,46.93l-3.31,4.07-5.84-11.8c5.32-5.05-6.55-13.91-9-10.03l-10.16,28.83c3.11-13.36,6.64-26.38,12-39,4.98-11.73,12.04-24.32,19-35,2.04-3.13,4.82-6.01,7-9,11.32-7.18,27.37-14.17,22,7Z"/>
  <path class="cls-68" d="M433.8,109.87c11.08,11.27,15.31,21.94,24,34l20,52c-.41,1.88-.29,1.3,0,3,.37,7.81-4.89.51-5.68-4.24-.99-6.85-3.29-12.91-6.91-18.17-4.04,3.39-8.57,2.18-13.6-3.63-.73,3.11-2,5.12-3.82,6.04l-3.43-3.37c-5.84-12.44-11.69-24.65-17.57-36.63l-3.86-2.23c-8.02-12.12-17.06-23.55-27.59-33.58l-1.55-4.19c6.41,1.87,6.98-10.75,14.08-10.59,2.87.07,19.14,17.43,22.41,20.65,1.13,1.12,3.37.79,3.51.94Z"/>
  <path class="cls-71" d="M447.8,178.87c1.96-16.26,9-2.72,11.69-2.09,3.99.94,5.28-8.06,10.79,4.1,2.54,5.6,2.44,11.58,5.74,18.27.98,1.98,2.09,2.93,1.77-.27,4.07,24.02,8.54,47.23,6,72l-2.01-1.07c-.07-4.99-2.65-32.56-5.54-34.24-.54-.32-11.83-1-12.45-.9v27.75s-2.01,1.46-2.01,1.46l-1.87-4.85c.28-24.53-4.2-49.17-10.65-72.47l.52-2.68c-3.02-.05-4.24-2.89-2-5Z"/>
  <path class="cls-100" d="M461.8,263.87v-34c3.98,6.13,11.78,2.59,15.35,3.95,4.13,1.57,6.77,32.29,6.65,37.05-.28,10.88-3.6,22.23-5,33,.04-.22-1.41-1.52-1.02-4.43.42-3.15,4.74-23.54,4.02-24.55-5.49-7.75-15.09,18.73-18.5,5.99l-2.49,5.49-1.01-2.5c-2.51-4.83-1.29-15.68,2-20Z"/>
  <path class="cls-39" d="M108.8,71.87c9.98.88,23.86-14.38,32.01-16.58,1.16-.31,19.47-3.64,20.52-3.52,13.41,1.64,1.78,6.35.48,7.6-6.08,5.83-11.33,7.51-16.01,13.49-.37,1.23-.81,2.65-1.9,3.39-13.27,9.08-26.07,18.91-37.3,30.59l-3.8,1.02c-1.64,5.71-8.43,12.84-14,15-1.95-23.74-7.11-7.39-22-7,9.15-12.57,19.01-24.04,30-35,4.31-2.79,7.85-6.07,12-9Z"/>
  <path class="cls-26" d="M326.8,407.87c-2.65,1.12-2.46.06-1-2,.11-2.99,2.16-4.34,5-5,3.62-7.11,8.87-12.41,16-16,3.87-8.57,11.88-15.29,20-20-.65-2.34,1.33-4.78,5.94-7.32-5.7-4.08-11.17-8.5-16.42-13.25-5.76,6.82-12.84,13.94-20.11,20.03l-2.41-.46c-2.62,6.8-9.12,12.65-16,15l-2.56.4c-9.46,9.36-19.17,18.42-29.12,27.2l-1.32-.6c-3.65,6.87-9.65,12.36-17,15-1.72,4.9-4.95,7.81-10,9,1.07,2.96-2.97,5.32-5,3,1.02-1.22,1.9-2.88,3-4,1.04-4.49,5.16-9.31,10-9,.26-3.36,1.28-6.01,5-5-.42-.86-.04-1.16,1-1l2.48-4.07c25.97-23.51,51.11-47.03,73.99-72.42,3.32-4.53,6.51-5.87,9.57-4.04l12.27,14.54c10.79,4.66,13.52,9.34,8.19,14.04-15.89,15.99-32.27,31.47-49.13,46.44l-2.38-.49Z"/>
  <path class="cls-35" d="M303.8,426.87c-2.48,6.62-9.08,12.02-15,16,1.22,2.72-.3,4.24-3,3l-3.01,1.24c-10.8-3-21.59-6-32.39-9l-.61-2.24c1.02-.93,1.93-2.04,3-3,.63-.57,3.48-1.64,5-3,3.69-.8,7.12-2.66,10.31-5.58l4.52,1.55c10.33-2.35,20.5-2.79,30.53-1.33l.64,2.37Z"/>
  <path class="cls-19" d="M227.8,389.87c4.83-4.13,15.24-9.12,18-1h1c-1.96,6.06-8.9,15.03-15,17-1.35,6.02-7.08,12.24-13,14-1.01,1.06-2.01,1.98-3,3l-7.13,6.36c-2.71.68-3.33-1.77-1.87-7.36-1.02-1.33-.56-5.05,0-7-.74-1.04-.99-2.3-.87-3.57.3-3.02,16.04-18.78,19.36-21.67l2.51.24Z"/>
  <path class="cls-10" d="M175.8,415.87c1.76,1.04,3.43,2.37,5,4,1.87.31,1.75,1.1,0,2,1.01,3.89,3.42,6.75,6.94,8.55l.06,1.45c.35.72.86,1.81.45,2.26-1.11,1.2-11.79,10.64-12.58,10.9l-2.87-.16c-5.11-1.99-10.96-5.47-16-8-.58-.29-2.44.29-3,0,.23-3.39,2.12-6.29,5.65-8.72,4.37-4.55,10.52-10.86,16.35-12.28Z"/>
  <path class="cls-13" d="M249.8,435.87l36,10,.71,1.18c-3.48,4.14-7.05,8.41-10.71,12.82-21.05,1.57-4.2-2.34-14.97-10.53-4.65-3.54-6.1-2.07-11.03-2.47-6.59,3.66-9.92,3.33-10-1,3.45-3.27,6.44-6.78,10-10Z"/>
  <path class="cls-102" d="M215.8,422.87c-3.27,3.35-25.26,25.89-27.05,26.51-3.39,1.18-12.32-3.1-15.95-4.51l15-13,1.02-1.06c8.27,1.92,14.38-1.67,17.98-8.94,1.47,12.7,1.54,3.55,9,1Z"/>
  <path class="cls-74" d="M252.8,405.87c3.8,1.38,5.46,3.05,5,5,2.77,1.86,1.07,4.88-2,4-6.81,5.22-13.65,11.24-20,17-2.47,1.9-7.18-5.86-5-8,.9-4.96,5.03-9.24,10-10-.9-3.3,5.85-9,9-9,1.02-2.68,3.09-1.67,3,1Z"/>
  <path class="cls-99" d="M300.8,447.87c-.16,2.3-.16,4.63,0,7-.3.07-.69.93-1,1-8.4,1.95-15.3,3.35-24,4-4.37-.99,8.29-12.17,10-14,.94-1,2.01-1.96,3-3,1.83-1.47,3.5-2.14,5-2,2.59-1.83,8.54,4.32,7,7Z"/>
  <path class="cls-83" d="M240.8,413.87c-3.35,3.27-6.59,6.76-10,10,1.72,2.97-4.53,6.97-7,5l-5-9c4.29-4.52,8.78-9.4,13-14,2.73-1.83,10.2,4.99,9,8Z"/>
  <path class="cls-1" d="M235.8,431.87c-4.7,4.26-9.05,8.98-14,13-1.52.71-3.19.17-5.01-1.62-4.88,6.28-8.55,7.82-10.99,4.62-5.01-12.27,10.1-7.1,11-8.01.25-.25-1.66-3.16-.98-3.95.35-.4,6.2-5.37,7.98-7.04.92-.87,4.31-2.44,7-5l5,8Z"/>
  <path class="cls-23" d="M249.8,446.87c-7.22,1.62-6.41,13.41-6.99,14.01-.63.65-17.81-.61-18-1.5-.31-1.44,13.19-11.8,14.99-13.51,3.4,3.39,6.46.71,10,1Z"/>
  <path class="cls-16" d="M221.8,444.87c-1.98,1.61-11.63,10.7-12.65,10.84-2.82.39-9.48-3.39-3.35-7.84.3-.21,2.69.38,3.93-.53,5.28-3.87,5.46-10.03,12.07-2.47Z"/>
  <path class="cls-38" d="M265.8,419.87c-3.22,3.01-6.93,5.87-10,9,.82-5.92-2.62-9.23,0-14,.72-1.31,1.93-2.34,2-4,4.44-2,12.08,4.42,8,9Z"/>
  <path class="cls-51" d="M137.8,222.87c1.61-2.53,3.67-1.96,4,1l2.3-1.2c8.32,4.05,14.03,11.72,18.53,19.47,5.69-1.99,17.12-4.31,19.17,2.73l-.46,2.25c-10.79.26-14.69,1.8-11.72,4.64l-.82,2.1c-.62,2.07-2.59,3.92-5.91,5.53-2.88,2.2-5.6,4.61-8.29,7.05-19.64,17.8-40.78,38.03-55.8,59.42,2.23-.34,4.62.55,7.16,2.69,11.35,5.4,21.09,10.94,29.41,20.46,10.8.27,21.74-.16,32.45-1.7l-.13-11.24,2.11-1.21c3.43-13.46,11.96-14.89,24.2-14.63,3.09-.7,4.31-.69,6.8.63,4.12-2.29,3.86-5.14,3.01-9.35l-2.33-9.24,1.31-1.41c-1.16-5.26-.11-6.89,3.17-4.89l2.48,10.18c.31.73,2.68-13.93,1.8-15.58l1.55-1.71c2,.4,3.43,3.42,2,5-3.32,5.94,18.22,38.32,20.42,38.72,1.54.28,19.29-19.48,21.28-22.78l2.3.06.07-5.61c-11.18-20.08,18.2-48.97,36.1-29.68,5.41-8.48,11.33-10.8,17.78-6.96,9.8-10.82,19.36-21.88,28.68-33.17l2.37.42c3.51-8.39,10.4-15.42,20-12-.95-2.86,4.59-4.5,6-2,.24-4.21,11.75-3.88,14.1-1.08,6.37,7.62-10.43,39.1-18.18,44.44-13.68,11.93-24.85,25.94-35.45,40.37,12.39,11.64,4.59,23.22-5.07,32.94-5.36,6.74-13.07,10.12-23.13,10.13-3.43,3.36-24.98,28.26-24.47,30.14.29,1.09,7.74,6.89,8.76,6.7,5.13-.94,54.18-51.59,60.13-61.83-1.9-30.69,15.95-61.5,49.86-61.84,36.95-.37,22.06,23.27,4.92,37.9-5.53,3.58,7.81,17.56,11.86,10.02l14.63-11.39c28.91-19.68,19.84,25.94,13.06,39.49.69,5.39-6.44,12.83-10.64,16.55-11.24,9.98-23.18,10.83-37.16,11.25-20.34,17.98-40.1,36.75-59.3,56.31-3.99,2.81-7.96,5.77-11.9,8.89-.09,4.06-2.92,6.99-7,7,.37.73.58,1.52.42,2.34s-11.74,10.48-13.42,8.66l-7-7c-.06-.8-.03-1.52.34-1.93,9.15-10.08,20.66-21.65,30.79-30.73.4-.36,1.09-.4,1.86-.34,6.48-6.28,53.32-47.82,52.98-51.5-.06-.65-9.04-5.29-10.98-6.99-3.03-2.66-12.47-15.67-13.48-15.51-2.55.4-30.86,32.17-35.99,37.02-15.49,14.66-31.83,28.56-47.53,42.97-2.74-2.15-4.4-4.48-5-7-1.29-2.1-1.81-3.01.29-4.62,12.38-6.15-2.84-16.64-8.91-6.31l-2.38-.07c-.26.82-.6.8-1,0-2.66.25-8.11-4.26-8-7-.26-.13-.72.13-1,0,.39-1.74.89-3.51,2-4.94,5.7-7.34,13.45-16.32,21-21.06l-.43-2.56c7.43-7.75,14.07-16.06,19.91-24.93-1.58-.84-2.39-1.62-1.48-3.51l-2.74-.18-12.66-13.56.4-2.25c-.86.95-2.14,1.56-1.94.55l-116.78,117.99-2.29-.54c-3.03-1.7-6.03-3.1-9-5l.03-2.1c5.48-7.13,12.94-16.08,20.97-19.9-1.83-2.44,3.37-8.03,6-7-1-1.2-1.19-2.2.18-2.76-7.46-9.9-15.33-19.64-23.61-29.23-4.89-2.23-10.61-2.46-17.15-.67-5.41-.18-9.05-4.07-10.92-11.67-6.39-6.72-14.43-11.93-24.13-15.63-2.27-1.23-10.64-5.82-10.12-8.57.1-.52.4-1,.75-1.48-.82,0-1.63-.14-2.29-.66-5.31-4.22,11.29-21.79,15.05-24.37-9.62-8.07-15.14-17.92-14.76-30.97-.47-.04-.93-.11-1.32-.31-1.1-.56-1.5-20.6-1.4-23.53.53-14.77,1.34-26.14,18.28-12.56-21.04-20.87,15.83-20.55,29.08-19.03,5.07-.02,8.86,1.46,11.36,4.44Z"/>
  <path class="cls-94" d="M81.8,273.87c2.05,6.12,3.17,12.51,6.18,18.32,2.49,4.82,10.77,11.38,10.84,12.2.31,3.91-19.36,13.89-15.02,25.48-.06,4.73,3.11,8.35,9.52,10.87,9.89,3.38,17.89,8.55,23.99,15.52,2.27,12.27,9.75,13.4,20.45,12.68,6.62.11,11.77,3.49,15.58,8.83l11.25,15.4c2.85,2.2,4.25,4.43,4.21,6.7-1.33,2.3-4.13,4.73-6,7-3.41.68-5.08-2.58-5.01-9.77l-21.91-8.08c-3.78-4.4-8-7.73-12.66-9.98-6.32,4.95-7.79,4.02-10.54-2.6-6.73,1.1-13.06.41-18.98-2.06-2.68,1.43-4.98,1.93-6.91,1.49-5.12-6.72-12.83-21.77-17-26-9.37-20.14-18.22-41.93-22-64-1.5-8.75-2.84-20.17-3-29,1.8-6.37,6.65-.4,7.1,4.2.74,4.94,1.75,9.79,3.03,14.54,9.47.1,14.63,3.67,15.49,10.72,6.87,6.04,9.27-5.81,9.33-11.3l2.06-1.16Z"/>
  <path class="cls-106" d="M86.8,375.87c7.67-6.85,9.45-1.57,14.55-1.06,2.8.28,11.13-.75,12.2-.23,3.28,1.61,1.97,5.05,2.25,5.29,2.09,1.8,5.71-2.83,7.27-2.84,5.47-.01,11.04,8.72,13.8,10.25,3.92,2.17,21.48,7.6,22.31,8.46,1.91,1.98-.11,9.31,3.61,11.12-6.46,7.83-14.55,14.16-21,22-23.72-15.14-38.16-30.92-55-53Z"/>
  <path class="cls-108" d="M271.8,315.87c2.98,2.7-3.87,10.48-7,9-.41,1.26-.86,2.5-1.44,3.68s-1.17,2.28-1.97,3.22c-7.73,9.05-25,29.14-34.03,34.4-1.13.66-2.33,1.19-3.55,1.7-13.29,18.24-30.03,34.39-48,48-7.22,7.05-15.41,13.37-22,21-3.12-1.63-2.81-2.9-3-3l118.11-118.89c1.62-.8,2.08.46,2.89.89Z"/>
  <path class="cls-42" d="M408.8,390.87c-5.64,6.32-11.61,12.44-18,18-20.21,17.59-41.83,29.91-67,39-3.8.39-11.16-7.45-10-11,2.35-2.29,4.61-4.69,7-7,4.01-2.75,7.87-5.98,11.58-9.69,4.96,3.5,9.35,2.65,13.19-2.56,9.96-4.77,20.54-8.51,31.75-11.22,9.67-2.6,16.78-7.03,22.92-14.58,2.71-2.32,6.94-5.11,8.56-.95Z"/>
  <path class="cls-21" d="M323.8,447.87c-8.19,2.96-14.51,4.94-23,7-4.24-3.22-3.43-3.16,0-7,2.81-3.15,9.41-7.5,13-11l10,11Z"/>
  <path class="cls-90" d="M461.8,263.87c-.25,6.21-1.19,13.77-2,20-1.48,11.38-4.66,22.09-8,33-3.47,6.39-6.63,12.95-9.46,19.69l-2.54.31c19.27-81-24.68-21.34-33.02-23.46-.99-.25-10.8-9.4-10.56-11.61.86-7.6,37.87-30.06,10.65-37.5-25.61-7-53.9,12.14-57.81,38.34-3.4,22.77,4.35,15.64-12.24,34.76-4.99,5.75-47.63,48.14-51.06,49.02-2.62.67-11.1-6.96-11.53-8.56-.53-1.99,24.14-31.14,25.99-32.06,4.2-2.08,10.25-.25,15.93-3.07,2.05-1.01,14.56-15.41,15.5-17.5,6.63-14.73-5.12-17.63-4.78-20.72.06-.57,5.84-6.69,7.14-8.94,10.34-17.83,24.55-25.49,36.4-41.08,4.49-5.91,14.25-26.34,11.25-32.98-1.43-3.17-9.91-1.16-12.88-.65-3.81,1.55-5.74-7.43-2.86-8.64l.86-13.36c-.04-.47-.04-.93.11-1.33.75-2.07,39.98-.35,43.76.31l1.13,2.03c-2.15,2.44-5.47,3.28-9.97,2.5-.46.08-.17,8.58.12,8.95s7.98,3.63,8.44,3.67c5.44-3.02,8.95-2.78,10.53.72.15,14.39,3.02,15.17,15.01,8.22,5.7.97,8.99.21,9.87-2.28-1.05-5.9.29-9.98,4.01-12.25-2.66-4.92-2.48-9.64-.42-14.76-3.24-3.26-6.6-12.56.41-10.78,8.34,24.97,13.07,53.62,12,80Z"/>
  <path class="cls-115" d="M451.8,316.87c-3.61,11.8-7.34,22.03-13,33-9.13,9.07-19.31,29.04-30,41-6.38-1.91-10.92,7.97-16.29,11.21-10.04,6.06-30.3,10.61-40.74,14.26-4.83,1.69-10.96,8.21-11.66,8.38-2.84.72-6.7-2.98-8.66-2.67-2.66.42-6.62,9.49-10.65,7.82,8.71-8.4,65.88-65.48,70.49-67.05,3.79-1.29,11.04-.04,16.7-1.26,16.34-3.52,23.15-11.46,31.81-24.69,4.62-7.05,5.14-14.34,12-20Z"/>
  <path class="cls-47" d="M378.8,86.87c4.59,4.2,9.15,8.46,13.69,12.76,1.48,11.48-9.3,7.42-16.13,4.57-2.05,2.65-3.53,3.29-6.52.91-1.1,3.37-2.78,5.29-5.04,5.76.31-4.06-.36-7.39-2-10l-1.09,1.95c-10.77-.69-21.53-.85-32.3-.49l-1.61-1.46c.53.07,1.01.18,1.33.47.96.85.91,19.39.67,22.07l-2,1.46c-2.3,1.53-5.02.84-8.18-2.08-22.41-18.24-44.5-36.79-66.29-55.64-8.68,6.36-17.07,13.14-25.16,20.35l-2.38-.63-2.35-.26c-1.05-9.27-5.66-14.14-13.83-14.59-4.72-6.27-8.99-15.75-.38-20.77,2.17-1.27,23.56-5.1,25.05-4.37.15.07-3.27.48-2.49-1,54.87-4.79,103.23,7.87,147,41Z"/>
  <path class="cls-49" d="M154.8,67.87c.51.07,1,.18,1.38.44,5.74,3.92-13.53,13.36-16.69,14.65-3.25,6.08,1.48,8.65,14.19,7.7,8.18,2.51,19.4,19.52,22.67,27.5,2.56-1.95,4.98-4.54,7.27-7.76,8.43-1.93,3.89,7.79.18,11.47-.53,1.11-1.1,2.2-1.78,3.22s-1.34,1.97-2.2,2.71c-11.94,10.39-24.56,21.23-37.29,30.56-.92.68-2.02,1.11-3.15,1.54s-2.35.72-3.57.97c-.04-3.72,1.52-7.37,4.67-10.94-6.28,3.74-11.41,3.35-15.39-1.16-5.67,1.53-22.27,4.83-14.24-4.94.66.06,5.09-1.05,4.28-2.22-6.02-.48-9.1-.79-9.55-7.89-9.26,7.05-14.32-8.88-10.36-15.45,3.86-2.9,6.39-6.37,7.6-10.41,12.1-12.5,28.01-26.15,43-35,2.85-1.68,6.07-3.49,9-5Z"/>
  <path class="cls-53" d="M231.8,45.87l2.49,1c-15.76,5.76-37.49,1.23-23.6,23.6,14.73,2.07,9.73,5.7,15.11,16.39-4.63,7.81-13.45,16.07-22,19-4.74,6.88-12.02,13.4-20,16,7.71-21.94-3.69-3.2-4.99-2.47-5.76,3.23-5.23-5.04-6.99-7.05-3.84-4.39-13.61-18.26-16.7-19.3-5-1.69-14,1.17-17.12-2.88-9.78-12.67,18.35-10.74,16.8-22.29,23.17-11.92,50.99-19.73,77-22Z"/>
  <path class="cls-114" d="M393.8,98.87c13.47,12.34,23.09,24.78,33,40l.54,2.53c8.33,9,5.53,14.41-5,19.47-5.46,10.75-20.14,10.87-21.98-2.52-4.31-1.9-22.45-2.49-18.35,5.61,2.41,4.76,5.71,5.96,10.79,6.36,1.36.68,1.86,1.17,2.85,2.2,1.72,1.77,6.66,12.24,5.15,14.37l-2.16.7-26.5-19.7c-4.82-2.81-6.94-5.81-6.34-9-2.14-15.76-2.48-31.76-1-48,6.34-15,5.89-5.86,8.51-6.01,1.07-.06.21-2.99.5-3,5.2-.32,14.03,6.63,16.49,2,3.95-7.41-9.85-10.51-11.5-16.99,4.98,3.77,10.41,7.8,15,12Z"/>
  <path class="cls-97" d="M76.8,140.87c2.04,2.11,2.04,5.35,0,9.73l-6.85,21.35c-1.53,6.3-1.34,12.88,2.2,18.39,4.5-2.67,8.78-1.57,10.73,3.39,4.41.29,7.05,1.67,7.92,4.14l4.54-1.28c13.2.56,26.43.6,39.68.11l2.79,2.17c2.71.97,2.85,4.04,0,5l.61,6.59c1.79,3.52,2.91,9.98-.61,12.41-7.9-2.24-15.26-3.31-23.54-3.03-44.6,1.47-5.19,19.29-10.47,25.03-1.2,1.3-14.4-14.68-19.9-10.89-4.92,3.39-1.84,33.62-2.09,39.9-.21,5.3-1.35,19.27-10.97,15.5-3.5-1.37-2.38-5.97-4.04-7.99-4.26-5.19-10.57-.86-13.44-4.57s-2.38-25.57-8.55-19.94c-.38-21.05,3.24-44.8,9-65,5.13-17.98,13.25-35.14,23-51Z"/>
  <path class="cls-63" d="M102.8,107.87c3.87,5.34-5.59,9.15-6.78,12.71-1.12,3.36,1.53,11.77,3.79,13.29.73.49,6.29-3.64,7.99-2.01.25.24-.43,4.96,1.25,6.77,1.27,1.36,11.59-1.02,6.85,5.55-1,1.38-3.87,1-4.5,1.58-6.45,5.9,12.96.94,13.84,1.05,2.83.35,3.05,3.88,6.93,4.04.99.04,18.84-8.57,18.6-3.48-.11,2.42-7.07,2.48-8.96,4.01-1.36,1.11-3.25,6.79-6.01,9.49-.26.97-.56,1.92-1,2.81s-.85,1.71-1.48,2.31c-11.39,10.76-24.6,20.73-37.13,30.19-.7.53-1.58.82-2.49,1.11s-1.91.46-2.9.59c-.99-.2-7.87-2.14-8.99-2.51-.99-.33-1.59-3.73-3.61-4.25-5.36-1.38-6.26,5.61-9.91-4.2-5.23-14.1,7.38-32.05,8.5-46.03,3.58-5.83,7.81-12.64,12-18s9.26-10.11,14-15Z"/>
  <path class="cls-20" d="M447.8,178.87c.61,1.67,1.44,3.31,2,5-5.67,2.76,1.57,9.19,1.7,10.49.04.41-1.77,4.92-1.78,8.04,0,2.9,2.22,5.92,2.1,7.02-.3,2.54-3.44,2.43-3.85,4.12-.78,3.26,1.32,9.99-2.17,11.83-2.69,1.43-7.3-.24-10.29.71s-7.47,5.1-10.74,4.38c-7.17-1.58-5.4-14.95-5.98-15.6-1.1-1.24-6.62,2.2-8.52,2.09-2.56-.15-7.05-5.05-9.47-3.08-.4.32-.02,11.9-5.54,5.02-3.17-3.95,4.36-4.7,4.54-5.05.23-.44.21-9.52,0-9.98-.56-1.2-7.45.22-9.3-.2-2.73-.61-2.3-2.64-4.17-2.89-4.64-.61-12.25,1.45-17.52.07,13.81-3.19,29.23.88,42.99-.99.54-1.03.2-1.91-1.01-2.66l-10.37-7.93.38-2.42c-2.08-2.44-5.53-12.46-7.47-14.02-2.2-1.77-6.45-.85-8.28-2.21-.33-.24-4.59-5.34-4.77-5.71-5.75-12.23,18.05-10.21,21.29-8.35,1.89,1.08.69,14.8,14.84,8.4,3.04-1.38,2.68-4.04,5.02-5.98,3.71-3.08,10.16-3.07,9.31-11.67-.34-3.45-6.2-4.01-3.94-8.45,8.42,12.93,15.65,25.4,21,40Z"/>
  <path class="cls-54" d="M330.8,400.87c-1.68,1.67-3.33,3.33-5,5-5.69,7.79-13.51,16.46-22,21-7.59-3.26-21.76-.2-30.65.93-2.2.28-4.17-1.77-4.87-1.64-2.26.43-5.07,7.92-10.49,3.71,3.32-2.98,6.68-6.01,10-9,6.6-2.79,12.46-7.28,17.56-13.47l1.44.47c-.71-2.02,4.87-6.67,6.87-7.79l2.13.79c1.98-.36,4.09.42,6.3,2.34,8,.95,16.38-.44,25.14-4.17,1.94-.39,3.12-.47,3.56,1.83Z"/>
  <path class="cls-17" d="M333.8,363.87c7.04-6.9,19.88-15.96,21.49-24.99.68,5.56,20.22,17.15,20.5,18.5.12.57-7.61,6.05-8.99,7.49-6.1,4.53-22.73,12.23-29.85,8.59-3.94-2.01-6.08-5.97-3.15-9.59Z"/>
  <path class="cls-81" d="M346.8,384.87c-5.35,5.31-10.65,10.69-16,16-11.18-.7-23.9,12.37-35,0,4.07-7.98,11.78-15.43,20-19,1.58.55,2.73,2,3.44,4.35,6.03,1.18,12.36.26,18.99-2.77,5-1.93,7.86-1.45,8.57,1.43Z"/>
  <path class="cls-40" d="M366.8,364.87c-6.56,6.87-13.27,13.32-20,20-7.27-3.4-30.24,13.65-31-3-1.85-2.15-.74-3.91,2-3,5.25-5.03,10.81-9.91,16-15,.61,17.59,23.53,2.79,33,1Z"/>
  <path class="cls-69" d="M284.8,405.87c4.37-3.91,29.46-29.27,31.52-29.99,2.85-.99-.24,2.86,1.48,2.99-.76.73-1.24,2.27-2,3-6.59,6.28-13.34,12.85-20,19-2.23,2.06-6.33,4.58-9,7-1.89,2.16-3.44.41-2-2Z"/>
  <path class="cls-37" d="M266.8,406.87c1.85,2.15,3.9,4.32,5,7-.35.32-.65.68-1,1-2.32-.66-4.67-2.23-7.07-4.71-4.18-.62-7.83-2.05-10.93-4.29-.71-.19-2.52-.74-3-1-7.97,2.09.04-12.79,5-9,.25-.04.77-.07,1,0,3.32-2.01,11.62,7.25,11,11Z"/>
  <path class="cls-55" d="M326.8,407.87c-10.4,10.08-22.18,23.93-33,33-1.45,1.22-3.04,2.04-5,2,4.99-5.28,9.89-10.84,15-16,7.09-7.16,14.88-13.87,22-21l1,2Z"/>
  <path class="cls-31" d="M270.8,414.87c-1.68,1.54-3.27,3.38-5,5,.18-5.73-4.36-6.4-8-9-1.97-1.41-3.82-2.81-5-5,7.74,2.11,12.94-.22,18,9Z"/>
  <path class="cls-5" d="M286.8,407.87c-4.22,3.82-13.63,17.61-19,13,5.62-5.06,11.37-9.96,17-15l2,2Z"/>
  <path class="cls-11" d="M223.8,367.87l1.99,1.25c-2.36,7.41-1.31,12.87,3.17,16.36l-.16,2.39c1.92.75.72,1.4-1,2-5.17,5.8-20.1,18.41-21,25-.28.87-.62.86-1,0l-2.18-.38c-4.57-9.46-19.55-6.25-20.68,4.17l-2.15,1.22c-3.94.63-4.48-.28-5-4,16.12-15.73,32.17-31.97,48-48Z"/>
  <path class="cls-34" d="M258.8,355.87c4.86-5,11.87,1.63,10,7-7.5,8.81-14.83,17.79-23,26-12.67-5.88-7.01.58-18,1,.43-.48.57-1.52,1-2,6.9-12.43,18.21-24.06,30-32Z"/>
  <path class="cls-107" d="M254.8,395.87c-.7.12-10.04,6.29-5,9-2.29,3.68-5.99,6.06-9,9l-9-8c5.03-5.49,9.5-11.86,15-17,3.51,1.81,5.91,3.62,8,7Z"/>
  <path class="cls-61" d="M206.8,421.87c-1.65,9.08-10.63,12.98-19,10-4.53-1.61-6.68-5.36-7-10l2.34.13c5.68,9.73,22.04,6.41,20.89-5.61l1.76-1.53h1c-.24,1.74-.21,5.23,0,7Z"/>
  <path class="cls-43" d="M205.8,414.87c3.22,14.91-18.18,20.91-25,7-.04-.64-.05-1.36,0-2,1.17-16.53,22.59-16.16,25-5Z"/>
  <path class="cls-2" d="M147.8,218.87c3.79-2.13,7.99-1.16,12.61,2.9-.23-6.37,3.6-6.71,11.46-1.03,5.96-1.81,10.68-2.37,16.83-.94-.76-12.71,12.63-5.54,14.74,3.25l3.08-.35c4.79-3.41,7.89-3.17,9.31.72.32,7.87.98,15.69,1.97,23.44l.81-1.91c8.37.45,16.76.64,25.14.26,1.41-.92.66-21.47.37-24.82l1.67-1.54c.79.07,1.96.28,2.03.84,1.02,8.39,1.36,20.35-1.03,28.16,0,.52-.06,1-.31,1.33-.87,1.18-26.16,1.63-28.69-1.33,3.08,1.31,6.01,3.08,8.79,5.3,5.17-3.93,8.43-4.4,13.99-.61,3.4,1.14,7.68-6.62,7.46-10.01,2.8-3.64,8.93,1.69,10.43,4.9,9.73,2.84,9.84,2.64.33-.59l1.11-1.73c3.4.36,24.29,1.11,25.27-.32.5-8.13.53-16.29-.06-24.41l1.67-1.54c3.68.35,2.26,5.33,1.29,7.99l.71,20.01c-.59-7.09-.59-13.92,0-20.5-1.96-3.34,4.09-7.57,7.23-5.66,9.87,10.37,20.45,8.35,33.13,5.84,9.76-12.73,25.75-6.19,13.64,8.32-4.56,4.49-27.87,33.83-30.05,34.54-3.43,1.13-4.92-2.6-8.07-2.05-2.96.51-8.82,9.24-10.53,9.43-2.36.26-7.3-9.52-19.92-5.98-4.8,1.34-17.14,14.14-18.16,18.83-2.21,10.17,5.55,11.85,1.73,20.24l-2.12-1.3c-3.87-13.82-5.41-23.82,5.7-34.63l-27.54,13.45c-12.55,7.16-15.36,1.9-20.71-9.48-6.91-6.8,2.51,10.06,3.9,12.3,5.95,10.5-4.66,18.37-3.23,3.66-.57-1.65-1.27-3.41-2-5l-1.38.19c-8.15-14.77-17.66-28.67-28.53-41.68l-.09-2.51c-11.06-6.24-16.35.1-19.99-1-1.38-.42-7.91-15.36-20.01-20-2.94-3.06,3.33-7.48,6-5Z"/>
  <path class="cls-67" d="M217.8,201.87c1.81.06,2.11.82,2.08,2.35,8.59.51,17.21.5,25.79-.05-.4,1.83-.36,1.9.13.19-.78-.21-1.95-.54-2-1.14-.52-6.49-.51-17.45,0-23.94l2-1.42-1.4,1.53c-8.34-.71-16.73-.53-25.07.14l-1.53-1.67c.07-.79.28-1.96.84-2.03,2.9-.35,25.36-1.35,26.62-.92.77.26,1.19,1.17,1.54,1.95l.96.46c-.28,8.29-.6,16.47-.96,24.54.29-.83.62-.81,1,0-.83-5.56-.78-12.61,0-18.5-1.34-6.61-1.21-12.03,7.49-9.47,1.88.55,4.06,1.73,3.51,3.97l2.11.86c-.22,8.53-.25,17.03-.09,25.5,8.49.43,16.99.24,25.47-.19l1.5,1.83.32-17.9c-1.26-10.36,7.79-16.45,7.43-3,.71,2.73,6.45,9.06,9.65,8.8,7.97-1.98,15.63-.63,20.51,6.34-.35,6.79,5.59,5.51,9.51,2.08l2.59.69c9.39,3.67,19.81,11.4,25,20-3.42.93-8.53,1.57-11.36,3.14s-6.04,6.3-8.64,8.86c.75-4.2,6.73-11.43-1.57-13-6.94-1.31-6.88,4.71-11.38,6.54-.82.34-16.69,2.53-17.58,2.49-9.69-.43-17.05-8.83-18.08-8.99-1.17-.19-5.39,4.11-5.39,4.46v20.5l-2-28-1.25,1.73c-2.97-.24-23.41-.43-24.24.5-1.06,1.17-.87,21.2-.79,24.31l-1.72,1.47,28.99,1.01c-4.53,2.97-19.97,4.15-25.2,2.68-3.13-.88-11.95-8.29-12.79-7.69-.53.38-3.58,10.26-6.01,11.54-3.81,2-7.03-2.95-10.52-2.6-5.15.52-4.88,9.34-15.49-3.94h29l-1-29-1.25,1.73c-8.16-.44-16.34-.25-24.48.45-.44,8.24-.5,16.5-.17,24.78l-2.1,1.04c-3.26-.84-1.37-24.03-5.49-24.97-.5-.11-5.79,4.57-9.86,2.85-2.05-.87-3.19-10.04-9.34-9.66s-1.09,4.96-1.32,5.27c-2.33,3.11-7.69.21-11.51.43-3.47.19-5.43,2.23-8.7,1.92-2.56-.24-8.35-5.18-8.76-4.83-.54.46.64,6.18-2.51,6.03-1.16-.06-8.08-6.07-12.5-5.03,17.49-19.53,37.89-36.91,60-51,6.16-3.08,16.25,2.81,8.58,9-1.92,2.44.38,21.91,1.27,22.64,2.86-.14,2.52.85.15,2.36Z"/>
  <path class="cls-113" d="M137.8,203.87c2.34-.05,3.43,1.84,3.28,5.66,31.84-24.6,62.96-50.51,93.34-77.72,4.96-4.77,10.4-8.41,16.3-10.93,8.99-.28,41.1,27.4,47.07,32.55,20.78,20.07,42.73,38.67,65.85,55.78l1.04-11.17,2.12-1.18c2.65.44,2.52,1.2,0,2,1.18,6.48-2.46,16.77,2,22-.31.05-4.29,1.54-6,2-8.08-6.92-16.86-13.19-25-20l-2.58.43c-26.56-24.46-53.92-47.88-82.09-70.26-14.38,10.83-28.28,22.29-41.7,34.38l-3.63.45c-20.29,16.64-40.28,33.67-60,51-1.32,1.16-5.18,1.89-6,5-.82-.31-2.77-.65-4-1,.45-6.12-.62-12.99,0-19Z"/>
  <path class="cls-98" d="M142.8,279.87c-.34-.38-.63-.76-.69-1.18-.23-1.41,18.33-17.65,20.88-19.36,7.94-5.35,8.44-5.41,14.62,1.7,8.95,10.29,27.36,40.35,26.72,54.31-.18,3.93-1,4.2-4.66,5.01-.07.02,1.01-.37,1.14.54-12.57,4.27-25.76-3.23-31,14-2.02-1-2.05-2.97-.11-5.91,7.78-12.17,5.15-13.34-3.7-1.98-3.54,3.96-12.9,2.39-11.19-3.11l-.88-1.96c3.25-3.01,6.14-6.32,8.65-9.92-.18-1.18-16.02-16.26-17.2-16.47-1.67-.3-22.45,19.47-25.27,22.52l-2.3-.16c-1.91-1.81-1.02-3.25.41-4.99l14.97-15.09c5.27-6.03,7.35-10.37,9.62-17.92Z"/>
  <path class="cls-78" d="M213.8,293.87c.92,2.68.54,5.5,1.99,6.99,5.3-6.95-9.71-20.89-6.98-24.97,5.57-8.33,9.15,12.6,14.45,13.03,5.61.46,39.94-19.66,41.54-18.05,1.74,1.74-9.06,11.63-9.92,16.57-1.48,8.57,2.44,14.41,2.92,22.43-1.52,3.35-21.58,25.86-23.98,24.99-2.23-.81-27.3-34.6-20.02-40.99Z"/>
  <path class="cls-30" d="M117.8,317.87c4.5,8.17,12.36,15.51,19,21,3.1-6.06,11.59-12.69,18-15,10.76,12.25,14.82-12.79,21.02-5.51,2.82,3.31-5.06,9.35-6.02,16.51-.48,3.56.31,13.34-.1,13.91-1.12,1.56-32.11,2.98-35.4,2.09-1.61-.44-7.67-8.39-11.19-10.81-4.79-3.29-22.98-11.31-24.31-14.19,1.05-2.98,2.84-5.45,4.89-7.81,11.79-13.59,24.61-27.9,39.11-38.19,3.48,15.86-22.81,29.03-25,38Z"/>
  <path class="cls-84" d="M181.8,244.87c7.14,4.03,26.08,35.44,30,44,3.25,8.89-4.38,13.99-.04,21.54,1.7,2.95,10.26,5.81,5.54,9.47-8.89,6.89-11.24-18.91-13.52-24l-.99,4.99c-.96.07-1.7-.24-2.05-1.08-4.17-9.85-19.55-39.14-28.34-43.9-2.01,0-3.21-.67-3.6-2.03-8.89-9.69,8.4-6.97,13-9Z"/>
  <path class="cls-88" d="M380.8,298.87l1.09.98c-2.53,16.68,17.09,32.13,32.79,26.04l1.12.98c2.79-1.74,9.55,1.66,9,5,.93,1.46-1.35,4.67-3,4-2.48.97-5.57.84-9.28-.39-15.03,1.01-24.83-1.83-36.93-10.34-6.02-3.37-8.67-3.23-7.98.42l-1.82,1.31c-1.66-3.19-3.38-6.39-4-10-.11-9.18,1.27-17.8,6.59-25.47.56-.81,1.44-.89,2.41-.53,1.86,1.24,3.36,3.3,4.51,6.19,2.59-.05,4.42.56,5.49,1.81Z"/>
  <path class="cls-93" d="M421.8,335.87c1.07,1.57-1.42,3.21-3,4-17.19,13.31-43.29,5.65-53-13-2.98-15.93,21.91,4.4,26.92,5.57,7.11,1.66,20.83-.87,29.08,3.43Z"/>
  <path class="cls-7" d="M310.8,311.87c4.03,4.69-3.42,6.49-7.36,5.46l-12.54-2.69-1.1,2.22c-4.46-4.67-17.83-15.67-20-21,.41-5.42,6.47-12.72,12.26-11.46,2.56.56,25.77,21.67,29.24,25.22l-.5,2.24Z"/>
  <path class="cls-50" d="M83.8,329.87c2.62,7.02,26.51,14.54,33.02,21.48,3.67,3.92,5.38,12.2,6.97,13.03,5.2,2.7,14.3-2.3,20.57.44,6.5,2.84,19.48,24.88,25.97,30.02,1.62,4.02-.69,3.57-1.53,5.03-8.05-4.94-15.96-23.02-23.5-27-9.59-5.07-19.71,2.52-26.92-8.08-2.01-2.95-1.14-6.28-4.69-10.31-6.46-7.34-29.44-12.29-31.75-21.37-.54-2.1.3-2.34,1.86-3.24Z"/>
  <path class="cls-6" d="M168.8,253.87c3.76-.31,6.21,1.22,8.85,3.65,5.67,5.19,23.11,35.6,25.15,43.35,1.91,7.28,5.5,17.45-2,20-5.39-1.39,2.75-.19,2.98-3.42.08-1.14-5.39-20.34-6.08-21.99-1.81-4.37-23.31-37.14-25.95-38.1-5.82-2.12-24.14,17.92-28.96,22.51-15.26,14.56-29.93,30.27-44,46-2.31-5.02,14.7-20.97,18.97-25.53,6.14-6.55,45.92-46.06,51.03-46.47Z"/>
  <path class="cls-27" d="M361.8,316.87c-2.83-16.37,5.01-32.66,21.02-38.48,2.55-.93,18.26-4.15,18.98-3.51,2.23,1.99-16.11,18.98-17.2,21.29-7.08,14.92,13.01,34.42,27.26,29.25,2.34-.85,19.19-14.48,19.94-13.54,2.1,2.59-5.46,28.13-12.99,27.99.8-.62,2.18-2.96,3-4,1.04-1.32,2.25-2.46,3-4l-1.43-1.69,3.01-9.33c-3.5,4.02-7.02,6.02-10.58,6.02-16.88,7.3-40.43-11.49-35-28-1.84-1.08-1.48-2.28-.17-3.77l13.05-14.01c-7.49,1.88-14.47,5.58-20.56,10.29l-2.31-.51c-6.91,8.05-7.24,16.05-9,26Z"/>
  <path class="cls-57" d="M366.8,233.89c2.41,2.17-39.26,48.97-42.5,48.97-.32,0-4.48-4.16-4.48-4.48,0-2.74,33.99-39.67,36.28-41.19,1.36-.9,10.24-3.71,10.7-3.3Z"/>
  <path class="cls-73" d="M286.8,331.87c.58.79,3.19,1.79,3.54,3.02.92,3.22-18.09,23.93-21.54,27.98-3.18-4.61-2.97-7.95-10-7-.57-.6-1.21-1.55-.83-2.08,1.8-2.44,13.46-18.08,14.57-18.47l2.26.55c-1.38-3.43,9.47-6.39,12-4Z"/>
  <path class="cls-33" d="M147.8,252.87c-1.16,1.72-1.81,1.86-3,3-2.16.95-3.3-.7-3.41-4.95l-22.43-3.16c-.55-.54-1.27-.51-2.16.11-3.43-4.04-7.61-7.07-11-12l1.37-1.92c13.74-.03,40.66.36,40.63,18.92Z"/>
  <path class="cls-22" d="M311.8,327.87c-6.39,7.48-17.95-4.05-22-11-6.83-11.72,21.09,5.83,21-5,1.68-2.24,8.04,3.54,8.37,5.13.63,3-5.19,8.73-7.37,10.87Z"/>
  <path class="cls-41" d="M144.8,255.87c-1.72,1.64-15.3,12.03-16.99,10-.27-.32.4-5.74-.95-8.29-.33-.62-7.52-6.7-10.06-9.71-.57-2.92,1.53-2.13,3.43-1.97,2.58.21,21.79,2.63,22.63,3.42,1.8,1.71,0,5.06,1.95,6.55Z"/>
  <path class="cls-46" d="M311.8,327.87c10.58-12.37,6.18-9.6-1-16-3.71-3.31-27.81-25.43-29.74-25.85-4.34-.96-9.25,6.5-11.26,9.85-2.47-6.08,7.34-16.49,14.96-12.45,2.13,1.13,34.89,30.18,35.58,32.49.91,3.04-5.96,10.31-8.54,11.96Z"/>
  <path class="cls-62" d="M286.8,331.87c-2.11.59-10.96,3.18-12,4-3.04,1.56-11.23-7.78-10-11,2.44-2.83,5.83-5.5,7-9,1.44.76,13.41,13.84,15,16Z"/>
  <path class="cls-18" d="M147.8,252.87c-4.6-16.95-27.68-17.61-42-17-.23-.33-3.49-1.94-1.99-2.99,3.66-2.58,29.62.9,35,3.49,7.08,3.4,13.46,9.88,8.99,16.51Z"/>
  <path class="cls-32" d="M266.8,406.87c-1.31-1.52-10.25-10.78-11-11,5.35-8.35,14.35-9.3,18.1.49,1.86,4.87-7.3,6.12-7.1,10.51Z"/>
  <path class="cls-79" d="M100.8,288.87c-2.91-3.91-2.52-5.16-4-9-1.42-2.57,8.75-9.96,10.74-10.59,1.06-.34,2.29.1,3.26.59,7.21,7.94-3.51,15.85-10,19Z"/>
  <path class="cls-75" d="M207.8,361.87c-8.75-6.22-17.41-12.56-26-19-.41-.81-.41-1.81,0-3,.35-.85,3.09-3.98,3.5-3.97,1.73.04,24.24,22.76,24.48,24.48.08.57-1.83,1.21-1.98,1.5Z"/>
  <path class="cls-111" d="M119.8,279.87c-1.7,1.68-2.21,1.48-2-1-3.1-.44-5.44-3.44-7-9-2.6.76-5.7.26-5-3-2.67.99-3.14-.72-2-3-2.7-3.83-5.99-6.3-10.91-5.98l-1.09-2.02c-.01-1.53-.4-8.81.49-8.99,2.1-.44,28.42,30.05,27.51,32.99Z"/>
  <path class="cls-52" d="M207.8,361.87c-.18.35-.75.64-1,1-.44.26-.88.48-1.34.55-1.62.25-26.73-14.48-23.66-20.55,10.01,4.24,19.41,10.13,26,19Z"/>
  <path class="cls-112" d="M204.8,364.87c-.99,1.1-5.81,7-6.5,6.98-1.26-.04-11.25-15.56-12.5-17.98.42-.7,1.11-1.36,1.64-1.08,2.09,1.12,17.25,9.59,17.46,10.59.1.47.02.97-.1,1.48Z"/>
  <path class="cls-45" d="M181.8,342.87c2.18,9.79,18.17,12.99,25,20-.71,1.02-1.4,1.34-2,2l-19-11c-2.4-4.66-6.44-8.1-4-14,.13.94-.19,2.14,0,3Z"/>
  <path class="cls-96" d="M117.8,278.87c-.67,2.97-10.37,10.59-13.68,11.83l-2.32-.83c-.32-.33-.73-.64-1-1,4.41-3.35,14.45-12.9,10-19,3.87,3.64,4.38,6.03,7,9Z"/>
  <path class="cls-116" d="M103.8,263.87c1.28.69,1.66,2.76,2,3,.91,3.23-8.3,8.92-11,7-.85-3.34-1.51-5.4-2-9,1.64-6.12,7.97-7.59,11-1Z"/>
  <path class="cls-72" d="M110.8,269.87c-.51-.69-12.84,9.01-14,10-.95-2.46-1.31-3.28-2-6l11-7c1.68,1.17,2.67.81,5,3Z"/>
  <path class="cls-95" d="M103.8,263.87c-1.23-.66-4.23-2.74-4.49-2.74-1.47-.01-4.57,3.37-6.51,3.74-.45-3.31-.97-5.39-1-9,6.43.06,10.3.73,12,8Z"/>
  <path class="cls-82" d="M318.8,293.87c-2.8,6.19-14.12-5.69-15-8,1.44-8.33,13.2,3.46,15,8Z"/>
  <path class="cls-110" d="M318.8,293.87c-4.76-1.84-10.42-13.03-15-8-4.85-12.68,17.8,1.8,15,8Z"/>
  <path class="cls-8" d="M119.8,279.87c-.34,1.08-13.49,13.95-14.5,13.98-.75.02-2.78-3.25-3.5-3.98l16-11c.34.38,1.48.6,2,1Z"/>
  <path class="cls-89" d="M274.8,335.87c-1.73,1.36-12.61,16.37-16,20-9.91,10.62-20.34,21.21-30,32-9.74-7.18-4.87-9.44-5-20,13.88-14.06,28.08-28.02,41-43l10,11Z"/>
  <path class="cls-86" d="M225.8,86.87c3.49-2.8,25.61-22.1,27.36-21.92,5.53.57,61.79,56.69,74.64,59.92v-24c0-1.75,32.34-.1,35,0,1.34.59,1.54,2.01,1.59,3.33-.98,18.54-.51,36.76,1.41,54.67,4.24,7.08,28.1,21.09,35,28,2.92,3.42,18.99,11.91,11,13l-45-1c-.11-.62.08-1.36,0-2l-1.83,1.07c-37.29-31.82-74.64-63.42-112.05-94.81-1.69,2.33-3.4,2.9-5.13,1.73l-4.35,1.43c-5.07,5.15-11.23,9.09-18.22,11.2l-13.04,14.45c-4.83,3.06-31.61-1.99-22.35-12.28,5.57-4.06,10.22-8.66,13.96-13.8,7.5-6.14,14.4-12.89,22-19Z"/>
  <path class="cls-76" d="M362.8,100.87c3.91.15,1.81,4.18,2,10,.52,15.95-1.18,32.16,1,48-6.17-10.3,1.27-44.53-3-58Z"/>
  <path class="cls-66" d="M247.8,104.87l-.84,2.9c-37.81,26.91-73.8,58.89-106.78,90.52l-2.38.57c-15.27-1.2-31.93,2.06-47-1,15.18-12.04,31.1-23.42,45-37,16.67-12.14,32.15-25.85,48-39,6.55-5.43,13.42-10.61,20-16,2.51,7.11-21.6,15.73-11.3,21.81.87.51,18.76,4.64,19.7,4.27s8.23-13.64,12.09-16.19c.6-.4,11.7-3.2,13.5-4.36.92-.59,4.2-9.04,10.01-6.54Z"/>
  <path class="cls-24" d="M366.8,196.87l-1.49,15.99c-34.57-22.34-64.56-58.38-98.05-80.95-3.53-2.38-12.91-9.34-16.89-9.03-6.91.54-92.27,80.12-107.24,87.83-6.08,3.65-3.12-4.01-5.33-6.83.16-1.54-.32-3.7,0-5,1.03-4.24,9.54-10.32,12.99-13.51,22.42-20.74,72.61-65.33,97.01-80.49,4.38-2.72,3.85-6.21,9.47-.96l109.53,92.96Z"/>
  <path class="cls-15" d="M286.8,218.87c.99.99,1,27.02,0,28.01s-27.02.98-28.01,0-.16-26.72.94-27.56,26.11-1.39,27.06-.44Z"/>
  <path class="cls-67" d="M323.8,231.88c4.6,3.95-14.98,7.86-15.99,6.99-3.48-3.02,13.68-8.97,15.99-6.99Z"/>
  <path class="cls-67" d="M199.31,230.93c1.39.26,5.59,9.41,1.85,10.86-8.16,3.15-7.68-11.95-1.85-10.86Z"/>
  <path class="cls-12" d="M337.8,202.87c-2.98,1.75-4.44,4.04-8.38,4-7.09-.08-4.66-5.25-5.69-6.33-10.25-10.73-16.63-2.29-22.25-5.58-.41-.24-6.45-6.42-6.73-6.81-2.87-4.05.57-7.31-2.43-9.27-5.86,3.79-.53,25.52-4.52,26.99-2.53.13-2.73-.82-2.85-3.13l-.13-23.18-24.95.38-1.06-2.07c-2-.21-11-8.93-11,5.5v18.5c0,.05-1,.05-1,0v-25l-29,1,1.74,1.23.17,21.49-1.91,1.27c.22-5.36-4.95-17.43-4.61-21.52.65-7.79,12.03-8.3-5.39-12.48,5.51-4.52,42.45-37.23,45.36-36.92,5.52.58,74.21,63.19,84.64,71.92Z"/>
  <path class="cls-92" d="M258.8,177.87c4.28.45,27.02-1,28.01,0s-1.47,24.31.99,28.01c-1.36.5-27.98,1.03-29.01,0s.75-24.28,0-28.01Z"/>
  <path class="cls-117" d="M217.8,177.87c.99-.99,28-1.4,28,0v26.5c0,.23,1.46,1.07,1,1.49-1.07.98-27.89.94-29.01.02-.2-.16.1-3.17,0-4-.29-2.71-.85-23.15,0-24Z"/>
  <path class="cls-104" d="M245.8,218.87c.99.99,1,27.02,0,28.01s-26.42.4-28.01,0c.68-4.19-1.3-25.84.94-27.56,1.07-.83,26.11-1.39,27.06-.44Z"/>
  <path class="cls-3" d="M154.8,323.87c-5.35,5.64-11.72,10.42-18,15-.54.14-1.01.21-1.22,0-6.01-5.63-13.41-14.14-17.78-21.01.23-1.83,25.65-24.65,27.5-24.65,1.73,0,19.17,17.05,19.39,18.37.38,2.29-7.89,10.18-9.89,12.28Z"/>
  <path class="cls-103" d="M166.11,294.58c-6.67-8.67,8.51-16.49,12.17-7.68s-7.88,13.25-12.17,7.68Z"/>
  <path class="cls-70" d="M136.8,338.87c-.09.07,1.18,1.39,1,1.99-5.85-1.27-21.18-18.12-20-22.99-.18,1.4,18.95,15.68,19,21Z"/>
  <path class="cls-64" d="M380.8,298.87c-7.67,2.23-8.55-1.74-10-8,4.48-5.22,27.36-16.24,25.51-10-.9,3.04-13.83,12.88-15.51,18Z"/>
  <path class="cls-109" d="M424.8,331.87l-9-5c.79-.34,12.48-10.64,12.99-10,1.26,1.58-2.86,12.69-3.99,15Z"/>
  <path class="cls-28" d="M133.44,313.96c1.72-.17,14.95,12.74,9.83,13.92-2.33.54-17.72-13.12-9.83-13.92Z"/>
  <path class="cls-9" d="M153.8,318.86c-2.16,4.03-14.44-8.53-13.56-10.98,2.09-5.8,14.63,8.98,13.56,10.98Z"/>
</svg>